<svg width="128" height="142" viewBox="0 0 128 142" fill="none" xmlns="http://www.w3.org/2000/svg">
<path d="M121.39 141.867H108.247L107.542 140.451H104.493L101.252 141.867H7.56584L0 134.881V109.599L1.766 106.286V102.869L0 98.8871V35.6803L2.35467 33.7323L0 31.6631V10.1802L11.0248 0L115.454 5.70457L127.289 12.6914L128 135.411L121.39 141.867Z" fill="url(#paint0_linear_269_639)"/>
<path d="M119.652 139.022H108.576L107.816 137.577H104.355L100.97 139.022H11.5463L3.91016 131.946V110.374L5.27879 106.921V103.607L3.91016 98.8854V35.4484L5.96604 33.0168L3.91016 31.3253V7.78704L11.5463 0.711121H76.4387L79.5959 2.03922H83.6651L87.7724 0.711121H119.652L127.288 7.78704V131.946L119.652 139.022Z" fill="url(#paint1_linear_269_639)" stroke="#A0A0A0" stroke-width="1.42222" stroke-miterlimit="10"/>
<path d="M14.7872 133.689L7.82227 127.188V10.7677L14.7872 4.26666H114.28L121.244 10.7677V127.188L119.737 128.595L119.711 129.956L118.132 130.094L114.28 133.689H14.7872Z" fill="#6D6D6C"/>
<path d="M113.724 4.45827L120.654 10.8075L121.722 126.783L120.357 128.034L120.187 128.189V128.411L120.167 129.418L118.925 129.524L118.715 129.542L118.567 129.678L114.8 133.13H14.9843L8.05447 126.782V10.8075L14.9843 4.45827H113.724ZM113.967 3.91385H14.7442L7.4668 10.583V127.02L14.7442 133.689H115.035L118.975 130.079L120.743 129.93L120.772 128.433L122.311 127.023L121.243 10.5802L113.967 3.91113V3.91385Z" fill="#A0A0A0"/>
<path d="M15.0353 132.978L8.17773 126.738V14.5688L15.0353 8.1778H113.32L120.178 14.5688V127.245L119.026 128.425L118.962 129.264L117.671 129.429L113.67 132.978H15.0353Z" fill="url(#paint2_linear_269_639)"/>
<path d="M113.112 8.44938L119.891 14.7475L120.178 126.93L119.115 128.006L119.037 128.08L119.03 128.184L118.933 128.901L117.798 129.081L117.708 129.096L117.643 129.157L113.468 132.734L15.189 133.062L8.11635 126.602L8.41044 14.8002L15.189 8.50211L113.112 8.44938ZM113.231 8.1778L15.0702 8.23052L8.11635 14.6861L7.82226 126.715L15.0702 133.333L113.581 133.006L117.946 129.609L119.306 129.39L119.374 128.281L120.533 127.207L120.178 14.6334L113.224 8.1778H113.231Z" fill="#B2B2B2"/>
<path d="M15.8371 9.24445L8.88867 16.0034V60.4444L32.373 49.9924L54.8811 18.3128L72.8887 9.24445H15.8371Z" fill="url(#paint3_linear_269_639)"/>
<path d="M119.466 58.6667L106.958 73.1043L98.4044 90.0445L61.3124 104.149L43.0215 131.911H113.949L119.466 126.782V58.6667Z" fill="url(#paint4_linear_269_639)"/>
<defs>
<linearGradient id="paint0_linear_269_639" x1="0" y1="88.7632" x2="153.342" y2="88.7632" gradientUnits="userSpaceOnUse">
<stop stop-color="#787878"/>
<stop offset="1" stop-color="#575757"/>
</linearGradient>
<linearGradient id="paint1_linear_269_639" x1="3.91016" y1="85.7977" x2="153.193" y2="85.7977" gradientUnits="userSpaceOnUse">
<stop stop-color="#ABABAB"/>
<stop offset="1" stop-color="#585858"/>
</linearGradient>
<linearGradient id="paint2_linear_269_639" x1="8.17773" y1="69.9232" x2="143.628" y2="69.9232" gradientUnits="userSpaceOnUse">
<stop stop-color="#8C8C8C"/>
<stop offset="1" stop-color="#585858"/>
</linearGradient>
<linearGradient id="paint3_linear_269_639" x1="3523.13" y1="13440" x2="31800.9" y2="13440" gradientUnits="userSpaceOnUse">
<stop stop-color="#787878"/>
<stop offset="1" stop-color="#575757"/>
</linearGradient>
<linearGradient id="paint4_linear_269_639" x1="43.0215" y1="95.2884" x2="119.466" y2="95.2884" gradientUnits="userSpaceOnUse">
<stop stop-color="#737373"/>
<stop offset="1" stop-color="#585858"/>
</linearGradient>
</defs>
</svg>
