<svg width="250" height="297" viewBox="0 0 250 297" fill="none" xmlns="http://www.w3.org/2000/svg">
<path d="M230.786 296.883H174.579L173.44 294.656H168.526L163.304 296.883H12.2004L0 285.895V195.935L2.84833 190.708V185.332L0 179.056V79.5423L3.79778 76.4794L0 73.2237V40.3451L10.0577 29.3571L226.371 32.3557L238.571 43.3438L247.33 281.033L230.786 296.883Z" fill="url(#paint0_linear_259_336)"/>
<path d="M235.03 292.176H175.218L173.983 289.905H168.404L162.919 292.176H18.3392L5.99219 281.035V196.906L8.20041 191.486V186.259L5.99219 178.825V78.9492L9.3164 75.1144L5.99219 72.4579V35.3955L17.1199 24.2554H123.266L128.371 26.3549H134.948L141.596 24.2554H235.03L247.377 35.3955V281.035L235.03 292.176Z" fill="url(#paint1_linear_259_336)" stroke="#A0A0A0" stroke-width="4" stroke-miterlimit="10"/>
<path d="M23.972 281.589L12.5312 271.351V40.5278L21.9429 30.1489H229.384L240.825 40.3873V271.351L238.333 273.579L238.309 275.721L235.698 275.935L229.384 281.589H23.972Z" fill="#6D6D6C"/>
<path d="M229.173 30.578L240.352 40.5593V271.159L238.145 273.129L237.86 273.365V273.708L237.836 275.293L235.842 275.464L235.51 275.486L235.273 275.7L229.196 281.14H24.164L12.9843 271.159V40.764L22.0874 30.578H229.173ZM229.576 29.7212H21.8263L12.0586 40.2714V271.523L23.7842 282.018H229.576L235.937 276.342L238.786 276.107L238.833 273.751L241.326 271.523V40.2166L229.576 29.7212Z" fill="#A0A0A0"/>
<path d="M24.5111 280.275L13.2676 270.249V90.659L18.4861 46.3226L28.7808 36.2753H224.024L235.268 46.3226V270.249L233.37 271.917L233.251 273.584L231.14 273.905L224.024 280.275H24.5111Z" fill="url(#paint2_linear_259_336)"/>
<path d="M224.069 36.4898L235.177 46.4283V270.602L233.421 272.166L233.302 272.273V272.444L233.207 273.858L231.356 274.136L231.213 274.158L231.118 274.243L224.116 280.519H24.6145L13.506 270.581V90.7876L18.7042 46.4497L28.887 36.5112H224.069V36.4898ZM224.259 36.0614H28.6971L18.2532 46.2355L13.0312 90.7447V270.773L24.4246 280.948H224.259L231.403 274.543L233.635 274.201L233.753 272.444L235.652 270.752V46.257L224.259 36.0614Z" fill="#B2B2B2"/>
<path d="M28.1274 35.9795L13.0312 50.8793V137.185L51.5075 118.549L88.3934 55.6862L117.897 35.9795H28.1274Z" fill="url(#paint3_linear_259_336)"/>
<path d="M235.391 135.96L208.217 164.476L189.634 197.942L109.061 225.794L69.332 280.62H224.023L235.391 270.486V135.96Z" fill="url(#paint4_linear_259_336)"/>
<path d="M183.411 58.6194C183.411 89.8847 158.06 115.239 126.8 115.239C95.5396 115.239 70.1895 89.9084 70.1895 58.6194C70.1895 38.488 80.7045 20.8019 96.5365 10.76C97.0112 10.4514 101.307 13.7037 101.307 13.7037C101.307 13.7037 99.2187 9.16941 99.8358 8.83706C107.835 4.46894 117.044 2 126.8 2C141.327 2 154.548 7.46015 164.588 16.4575C165.205 17.0273 165.063 20.2084 165.063 20.2084C165.063 20.2084 167.151 18.9027 167.507 19.2826C177.358 29.4669 183.411 43.331 183.411 58.6194Z" fill="url(#paint5_linear_259_336)" stroke="#A0A0A0" stroke-width="4" stroke-miterlimit="10"/>
<path d="M126.802 103.321C102.164 103.321 82.1074 83.285 82.1074 58.6194C82.1074 33.9775 102.164 13.9174 126.802 13.9174C138.718 13.9174 149.945 18.5704 158.395 26.998C158.633 27.2354 158.609 28.7547 158.324 30.1791L158.158 30.9625L158.917 30.7489C159.345 30.6302 160.579 30.2978 161.22 30.2978C161.315 30.2978 161.362 30.2978 161.386 30.2978C167.913 38.2506 171.521 48.3163 171.521 58.6431C171.521 68.7088 168.246 78.2284 162.074 86.1338C162.027 86.1338 161.908 86.1575 161.695 86.1575C160.888 86.1575 159.606 85.9438 159.606 85.9438L158.3 85.7302L159.179 86.7273C159.701 87.3208 160.175 87.9855 160.318 88.2703C151.773 97.8375 139.596 103.321 126.802 103.321Z" fill="#6D6D6C"/>
<path d="M126.801 14.3922C132.758 14.3922 138.55 15.5555 144.009 17.8582C149.255 20.066 153.955 23.2472 158.014 27.2829C158.156 27.639 158.085 28.9447 157.847 30.0842L157.539 31.6273L159.058 31.1762C159.604 31.0101 160.625 30.7727 161.147 30.7489C164.256 34.571 166.677 38.8442 168.363 43.4497C170.143 48.3164 171.045 53.4204 171.045 58.6432C171.045 63.676 170.214 68.6139 168.552 73.3144C166.986 77.7774 164.731 81.9319 161.811 85.6828C161.764 85.6828 161.716 85.6828 161.669 85.6828C160.909 85.6828 159.651 85.4929 159.651 85.4691L157.017 85.0418L158.773 87.0359C159.129 87.4395 159.485 87.8906 159.675 88.1992C155.64 92.686 150.822 96.247 145.339 98.7871C139.499 101.493 133.281 102.847 126.801 102.847C120.819 102.847 115.051 101.683 109.592 99.3806C104.323 97.1491 99.5991 93.968 95.5402 89.9085C91.4813 85.849 88.3007 81.1247 86.0695 75.8545C83.7671 70.3944 82.604 64.6019 82.604 58.6432C82.604 52.6845 83.7434 46.8682 86.0695 41.4081C88.3007 36.1379 91.4813 31.4136 95.5402 27.3541C99.5991 23.2946 104.323 20.1135 109.592 17.882C115.051 15.5792 120.843 14.3922 126.801 14.3922ZM126.801 13.4426C101.854 13.4426 81.6309 33.6689 81.6309 58.6194C81.6309 83.5699 101.854 103.796 126.801 103.796C140.33 103.796 152.459 97.8613 160.743 88.4366C161.004 88.128 159.485 86.395 159.485 86.395C159.485 86.395 160.791 86.6086 161.669 86.6086C162.025 86.6086 162.286 86.5611 162.381 86.4662C168.41 78.7982 171.994 69.1124 171.994 58.5957C171.994 47.6991 168.125 37.7047 161.716 29.8943C161.645 29.7993 161.455 29.7756 161.218 29.7756C160.363 29.7756 158.797 30.2504 158.797 30.2504C158.797 30.2504 159.39 27.2829 158.749 26.6419C150.56 18.4992 139.262 13.4426 126.801 13.4426Z" fill="#A0A0A0"/>
<path d="M126.801 98.6921C148.929 98.6921 166.867 80.751 166.867 58.6194C166.867 36.4878 148.929 18.5466 126.801 18.5466C104.673 18.5466 86.7344 36.4878 86.7344 58.6194C86.7344 80.751 104.673 98.6921 126.801 98.6921Z" fill="url(#paint6_linear_259_336)" stroke="#A0A0A0" stroke-width="4" stroke-miterlimit="10"/>
<defs>
<linearGradient id="paint0_linear_259_336" x1="0" y1="163.124" x2="247.321" y2="163.124" gradientUnits="userSpaceOnUse">
<stop stop-color="#787878"/>
<stop offset="1" stop-color="#575757"/>
</linearGradient>
<linearGradient id="paint1_linear_259_336" x1="5.98775" y1="158.223" x2="247.368" y2="158.223" gradientUnits="userSpaceOnUse">
<stop stop-color="#ABABAB"/>
<stop offset="1" stop-color="#585858"/>
</linearGradient>
<linearGradient id="paint2_linear_259_336" x1="13.2692" y1="158.281" x2="235.256" y2="158.281" gradientUnits="userSpaceOnUse">
<stop stop-color="#8C8C8C"/>
<stop offset="1" stop-color="#585858"/>
</linearGradient>
<linearGradient id="paint3_linear_259_336" x1="13.0328" y1="87.4352" x2="117.909" y2="87.4352" gradientUnits="userSpaceOnUse">
<stop stop-color="#787878"/>
<stop offset="1" stop-color="#575757"/>
</linearGradient>
<linearGradient id="paint4_linear_259_336" x1="69.3242" y1="208.29" x2="235.386" y2="208.29" gradientUnits="userSpaceOnUse">
<stop stop-color="#737373"/>
<stop offset="1" stop-color="#585858"/>
</linearGradient>
<linearGradient id="paint5_linear_259_336" x1="70.1881" y1="58.6259" x2="183.422" y2="58.6259" gradientUnits="userSpaceOnUse">
<stop stop-color="#ABABAB"/>
<stop offset="1" stop-color="#585858"/>
</linearGradient>
<linearGradient id="paint6_linear_259_336" x1="86.7396" y1="58.6259" x2="166.872" y2="58.6259" gradientUnits="userSpaceOnUse">
<stop stop-color="#ABABAB"/>
<stop offset="1" stop-color="#585858"/>
</linearGradient>
</defs>
</svg>
