<svg width="156" height="27" viewBox="0 0 156 27" fill="none" xmlns="http://www.w3.org/2000/svg">
<path d="M23.2096 15.9366C22.7446 16.2207 22.2022 16.2724 21.789 16.0399C21.2724 15.7299 20.9624 15.0326 20.9624 14.0769V11.1582C20.9624 9.76344 20.42 8.7561 19.4902 8.49781C17.9146 8.03289 16.7265 9.97007 16.2874 10.6933L13.4979 15.1617V9.66012C13.472 8.39449 13.0588 7.64546 12.2839 7.413C11.7673 7.25802 10.9924 7.33551 10.2434 8.47199L4.0186 18.442C3.19207 16.8664 2.75298 15.11 2.75298 13.3278C2.75298 7.30968 7.58301 2.42799 13.4979 2.42799C19.4127 2.42799 24.2427 7.30968 24.2427 13.3278V13.3537V13.3795C24.2944 14.5418 23.9328 15.4717 23.2096 15.9366ZM26.619 13.3278V13.302V13.2762C26.5932 5.96657 20.7042 6.10352e-05 13.4979 6.10352e-05C6.26573 6.10352e-05 0.376709 5.96657 0.376709 13.3278C0.376709 20.6633 6.26573 26.6556 13.4979 26.6556C16.8298 26.6556 19.9809 25.39 22.4089 23.0912C22.8996 22.6263 22.9255 21.8773 22.4605 21.3865C22.0214 20.8958 21.2724 20.8699 20.7816 21.309C20.7816 21.309 20.7816 21.309 20.7558 21.3348C18.7928 23.1945 16.1582 24.2535 13.4462 24.2535C10.2692 24.2535 7.42803 22.8587 5.46503 20.6375L11.0699 11.649V15.8074C11.0699 17.7963 11.8448 18.442 12.4905 18.6228C13.1362 18.8036 14.1178 18.6745 15.1767 16.9956L18.2504 12.0106C18.3537 11.8556 18.4312 11.7006 18.5345 11.5973V14.1285C18.5345 15.9882 19.2836 17.4863 20.575 18.2095C21.7373 18.8811 23.2096 18.8036 24.4235 18.0546C25.9216 17.073 26.7223 15.3683 26.619 13.3278ZM44.906 8.78193C45.2159 8.96273 45.5 9.40183 45.5 9.78926C45.5 10.4092 44.9834 10.9257 44.3894 10.9257C44.2344 10.9257 44.1053 10.8741 43.9761 10.8483C43.2787 10.3317 42.4005 9.9959 41.4707 9.9959C39.2752 9.9959 37.7771 11.7781 37.7771 13.9994C37.7771 16.2207 39.3011 17.9771 41.4707 17.9771C42.5555 17.9771 43.537 17.538 44.2602 16.8406C44.441 16.7114 44.6735 16.634 44.906 16.634C45.5 16.634 45.9649 17.0989 45.9649 17.6929C45.9649 18.0804 45.7325 18.4162 45.4484 18.597C44.3894 19.501 42.9688 20.0951 41.4965 20.0951C38.1387 20.0951 35.4009 17.3313 35.4009 13.9219C35.4009 10.5125 38.1387 7.74877 41.4965 7.74877C42.7363 7.72294 43.9245 8.11038 44.906 8.78193ZM51.0533 11.3648C53.352 11.3648 55.2634 13.302 55.2634 15.7041C55.2634 18.0804 53.3262 20.1209 51.0533 20.1209C48.6512 20.1209 46.6623 18.1062 46.6623 15.7041C46.6623 13.302 48.6512 11.3648 51.0533 11.3648ZM51.0274 17.9771C52.0348 17.9771 52.8871 17.0214 52.8871 15.7299C52.8871 14.4385 52.0348 13.612 51.0274 13.612C49.9426 13.612 49.0386 14.4127 49.0386 15.7299C49.0386 16.9956 49.9426 17.9771 51.0274 17.9771ZM56.7098 18.7778V12.6821C56.7098 12.0106 57.2264 11.4681 57.898 11.4681C58.5437 11.4681 59.0861 12.0106 59.0861 12.6821V18.7778C59.0861 19.4493 58.5437 19.9917 57.898 19.9917C57.2522 19.9917 56.7098 19.4235 56.7098 18.7778ZM56.529 9.16937C56.529 8.36867 57.1489 7.74877 57.898 7.74877C58.6728 7.74877 59.2927 8.3945 59.2927 9.16937C59.2927 9.94424 58.6728 10.5641 57.898 10.5641C57.1231 10.5383 56.529 9.91841 56.529 9.16937ZM63.632 15.4716V18.7778C63.632 19.4493 63.0896 19.9917 62.4439 19.9917C61.7981 19.9917 61.2557 19.4493 61.2557 18.7778V12.398C61.2557 11.8814 61.669 11.4681 62.1856 11.4681C62.7022 11.4681 63.0896 11.9072 63.0896 12.398C64.0453 11.494 64.8976 11.3648 65.6983 11.3648C68.0746 11.3648 69.1336 13.147 69.1336 15.1875V18.7778C69.1336 19.4493 68.5912 19.9917 67.9454 19.9917C67.2997 19.9917 66.7573 19.4493 66.7573 18.7778V15.4716C66.7573 14.4385 66.6282 13.5603 65.1301 13.5603C64.0711 13.5603 63.632 14.4385 63.632 15.4716ZM76.8306 16.7373C76.5465 16.7373 76.3657 16.6081 76.2107 16.4273L73.447 13.4312V18.7778C73.447 19.4493 72.9046 19.9917 72.2589 19.9917C71.6132 19.9917 71.0708 19.4493 71.0708 18.7778V8.18787C71.1482 8.00706 71.329 7.87791 71.5099 7.87791C71.7165 7.87791 71.8973 8.05872 72.0264 8.18787L76.4432 13.147C76.5723 13.302 76.7273 13.3795 76.8306 13.3795C76.9081 13.3795 77.0889 13.302 77.2181 13.147L81.6348 8.18787C81.764 8.05872 81.9189 7.87791 82.1514 7.87791C82.358 7.87791 82.5388 8.00706 82.5905 8.18787V18.7778C82.5905 19.4493 82.0739 19.9917 81.4024 19.9917C80.7566 19.9917 80.2142 19.4493 80.2142 18.7778V13.4312L77.4505 16.4273C77.2439 16.6081 77.0631 16.7373 76.8306 16.7373ZM88.2471 17.9771C89.3061 17.9771 90.2101 17.0214 90.2101 15.7299C90.2101 14.4385 89.2802 13.5861 88.2471 13.5861C87.2139 13.5861 86.3615 14.4643 86.3615 15.7299C86.3615 16.9697 87.1881 17.9771 88.2471 17.9771ZM90.7783 19.0619L90.7266 18.7778C90.2617 19.6818 88.7895 20.0951 87.8596 20.0951C85.6383 20.0951 83.9853 18.0804 83.9853 15.6783C83.9853 13.302 85.6642 11.339 87.9888 11.339C88.3762 11.339 89.7193 11.4423 90.7525 12.6563L90.8041 12.3722C90.8041 11.8556 91.1916 11.4423 91.7082 11.4423C92.2247 11.4423 92.638 11.8814 92.638 12.3722V19.0361C92.638 19.5526 92.2247 19.9659 91.7082 19.9659C91.1657 19.9917 90.7783 19.5526 90.7783 19.0619ZM99.1727 13.5603H98.9145C97.4164 13.6378 97.1322 14.4901 97.1322 15.4716V18.7778C97.1322 19.4493 96.5898 19.9917 95.9441 19.9917C95.2984 19.9917 94.756 19.4493 94.756 18.7778V12.398C94.756 11.8814 95.1692 11.4681 95.6858 11.4681C96.2024 11.4681 96.5898 11.9072 96.5898 12.398C97.468 11.5715 98.1912 11.3907 98.9145 11.3648H99.1469C99.7152 11.3648 100.232 11.8556 100.232 12.4755C100.258 13.0437 99.741 13.5603 99.1727 13.5603ZM108.342 18.2095C108.445 18.3903 108.523 18.5711 108.523 18.7778C108.523 19.3977 107.955 19.9659 107.335 19.9659C106.921 19.9659 106.56 19.656 106.276 19.2943L103.538 16.1174V18.7519C103.538 19.4235 102.995 19.9659 102.35 19.9659C101.704 19.9659 101.162 19.4235 101.162 18.7519V9.06605C101.162 8.3945 101.678 7.85208 102.35 7.85208C103.021 7.85208 103.538 8.3945 103.538 9.06605V15.11L106.276 12.0881C106.56 11.7781 106.896 11.4423 107.309 11.4423C107.903 11.4423 108.445 11.9847 108.445 12.6046C108.445 12.7854 108.394 12.9921 108.29 13.147L106.121 15.5233L108.342 18.2095ZM112.991 13.5861C112.346 13.5861 111.287 13.9219 111.287 14.9292H114.722C114.696 13.9219 113.611 13.5861 112.991 13.5861ZM116.091 16.4532H111.287C111.287 17.8738 112.655 18.1062 113.25 18.1062C113.689 18.1062 114.309 18.0287 114.799 17.7963C114.954 17.6929 115.187 17.6155 115.419 17.6155C115.936 17.6155 116.375 18.0546 116.375 18.597C116.375 18.9586 116.142 19.2685 115.858 19.4493C115.135 19.9917 114.179 20.1209 113.275 20.1209C110.873 20.1209 108.884 18.8294 108.884 15.8074C108.884 13.4312 110.098 11.3648 112.94 11.3648C115.238 11.3648 116.969 12.8629 117.021 15.5233C117.021 16.0141 116.607 16.4532 116.091 16.4532ZM122.703 20.0951H122.057C120.249 20.0951 119.19 19.2943 119.19 16.479V13.5603H118.57C118.002 13.5603 117.511 13.0437 117.511 12.4755C117.511 11.8556 118.028 11.3648 118.57 11.3648H119.19V9.11771C119.19 8.44616 119.707 7.90375 120.378 7.90375C121.024 7.90375 121.567 8.44616 121.567 9.11771V11.3648H122.548C123.116 11.3648 123.607 11.8556 123.607 12.4755C123.607 13.0437 123.09 13.5603 122.548 13.5603H121.567V16.0141C121.567 17.6413 121.644 17.9771 122.367 17.9771H122.703C123.271 17.9771 123.762 18.442 123.762 19.0361C123.762 19.6043 123.271 20.0951 122.703 20.0951ZM134.197 8.78193C134.507 8.96273 134.791 9.40183 134.791 9.78926C134.791 10.4092 134.274 10.9257 133.68 10.9257C133.525 10.9257 133.396 10.8741 133.267 10.8483C132.57 10.3317 131.691 9.9959 130.762 9.9959C128.566 9.9959 127.068 11.7781 127.068 13.9994C127.068 16.2207 128.592 17.9771 130.762 17.9771C131.846 17.9771 132.828 17.538 133.551 16.8406C133.732 16.7114 133.964 16.634 134.197 16.634C134.791 16.634 135.256 17.0989 135.256 17.6929C135.256 18.0804 135.023 18.4162 134.739 18.597C133.68 19.501 132.26 20.0951 130.787 20.0951C127.43 20.0951 124.692 17.3313 124.692 13.9219C124.692 10.5125 127.43 7.74877 130.787 7.74877C132.027 7.72294 133.241 8.11038 134.197 8.78193ZM140.215 17.9771C141.274 17.9771 142.178 17.0214 142.178 15.7299C142.178 14.4385 141.248 13.5861 140.215 13.5861C139.156 13.5861 138.33 14.4643 138.33 15.7299C138.33 16.9697 139.182 17.9771 140.215 17.9771ZM142.746 19.0619L142.695 18.7778C142.23 19.6818 140.757 20.0951 139.828 20.0951C137.606 20.0951 135.953 18.0804 135.953 15.6783C135.953 13.302 137.632 11.339 139.957 11.339C140.344 11.339 141.687 11.4423 142.72 12.6563L142.772 12.3722C142.772 11.8556 143.16 11.4423 143.676 11.4423C144.193 11.4423 144.606 11.8814 144.606 12.3722V19.0361C144.606 19.5526 144.193 19.9659 143.676 19.9659C143.134 19.9917 142.746 19.5526 142.746 19.0619ZM151.089 17.9771C152.148 17.9771 152.975 16.9697 152.975 15.7299C152.975 14.4385 152.122 13.5861 151.089 13.5861C150.03 13.5861 149.126 14.4385 149.126 15.7299C149.126 17.0214 150.03 17.9771 151.089 17.9771ZM149.126 19.3977V22.4197C149.126 23.0912 148.584 23.6336 147.938 23.6336C147.292 23.6336 146.75 23.0912 146.75 22.4197V12.398C146.75 11.8814 147.163 11.4681 147.68 11.4681C148.196 11.4681 148.584 11.9072 148.584 12.5013C149.462 11.5973 150.547 11.3648 151.373 11.3648C153.672 11.3648 155.377 13.302 155.377 15.7041C155.377 18.0804 153.749 20.1209 151.502 20.1209C150.805 20.095 149.772 19.8884 149.126 19.3977Z" fill="#17181B"/>
</svg>
