<svg width="117" height="20" viewBox="0 0 117 20" fill="none" xmlns="http://www.w3.org/2000/svg">
<g clip-path="url(#clip0_33:87)">
<path d="M22.9529 14.6119C22.6835 14.6119 22.4931 14.5561 22.3816 14.4446C22.2794 14.3332 22.2283 14.1567 22.2283 13.9152V5.84699C22.2283 5.60546 22.284 5.42895 22.3955 5.31747C22.507 5.19671 22.6928 5.13632 22.9529 5.13632H26.3669C27.6674 5.13632 28.6243 5.41037 29.2374 5.95846C29.8506 6.50656 30.1571 7.32406 30.1571 8.41098C30.1571 9.48858 29.8506 10.3014 29.2374 10.8495C28.6336 11.3883 27.6768 11.6577 26.3669 11.6577H25.0431V13.9152C25.0431 14.1567 24.9873 14.3332 24.8759 14.4446C24.7644 14.5561 24.5739 14.6119 24.3045 14.6119H22.9529ZM26.1439 9.63721C26.5248 9.63721 26.8175 9.53499 27.0218 9.33067C27.2355 9.12629 27.3423 8.81968 27.3423 8.41098C27.3423 7.99294 27.2355 7.6817 27.0218 7.47734C26.8175 7.27297 26.5248 7.17078 26.1439 7.17078H25.0431V9.63721H26.1439Z" fill="black"/>
<path d="M33.448 14.8209C32.5747 14.8209 31.8733 14.5422 31.3438 13.9848C30.8236 13.4182 30.5635 12.6239 30.5635 11.602C30.5635 10.8217 30.74 10.1389 31.093 9.55362C31.4553 8.96834 31.9616 8.5178 32.6119 8.20199C33.2714 7.87684 34.0285 7.71423 34.8832 7.71423C35.5892 7.71423 36.2117 7.79322 36.7505 7.95113C37.2985 8.09976 37.8002 8.31812 38.2554 8.60605V14.1799C38.2554 14.3564 38.2229 14.4725 38.1578 14.5283C38.0928 14.584 37.9628 14.6119 37.7677 14.6119H36.3463C36.2442 14.6119 36.1652 14.5979 36.1094 14.5701C36.0537 14.5329 36.0073 14.4772 35.9701 14.4029L35.789 13.9848C35.5195 14.2728 35.1945 14.4819 34.8136 14.6119C34.4419 14.7513 33.9868 14.8209 33.448 14.8209ZM34.493 12.9258C34.8553 12.9258 35.1387 12.8375 35.3431 12.661C35.5474 12.4846 35.6496 12.2337 35.6496 11.9086V9.73476C35.4731 9.65114 35.2501 9.60937 34.9807 9.60937C34.4884 9.60937 34.0936 9.78124 33.7963 10.1249C33.5083 10.4687 33.3643 10.9517 33.3643 11.5742C33.3643 12.4752 33.7406 12.9258 34.493 12.9258Z" fill="black"/>
<path d="M40.1946 14.6119C39.9252 14.6119 39.7348 14.5561 39.6233 14.4447C39.5118 14.3332 39.4561 14.1567 39.4561 13.9152V8.35526C39.4561 8.18802 39.4839 8.07652 39.5397 8.02085C39.6047 7.95576 39.7347 7.92325 39.9298 7.92325H41.3651C41.4766 7.92325 41.5602 7.94186 41.616 7.979C41.681 8.00687 41.7181 8.06262 41.7274 8.14624L41.7971 8.56428C42.0572 8.30415 42.3963 8.09976 42.8143 7.95113C43.2416 7.79322 43.7154 7.71423 44.2357 7.71423C44.9881 7.71423 45.5966 7.92788 46.0611 8.35526C46.5256 8.7733 46.7578 9.39572 46.7578 10.2225V13.9152C46.7578 14.1567 46.702 14.3332 46.5906 14.4447C46.4884 14.5561 46.3026 14.6119 46.0332 14.6119H44.6816C44.4122 14.6119 44.2171 14.5561 44.0963 14.4447C43.9848 14.3332 43.9291 14.1567 43.9291 13.9152V10.4037C43.9291 10.1249 43.8687 9.92525 43.7479 9.80441C43.6271 9.68365 43.4367 9.62327 43.1766 9.62327C42.8979 9.62327 42.6749 9.69762 42.5078 9.84626C42.3498 9.9949 42.2709 10.1993 42.2709 10.4593V13.9152C42.2709 14.1567 42.2151 14.3332 42.1036 14.4447C42.0015 14.5561 41.8156 14.6119 41.5462 14.6119H40.1946Z" fill="black"/>
<path d="M51.6833 14.8209C50.3827 14.8209 49.3794 14.519 48.6734 13.9152C47.9674 13.3113 47.6143 12.4335 47.6143 11.2815C47.6143 10.5755 47.777 9.95305 48.102 9.41425C48.4272 8.87545 48.8963 8.45742 49.5095 8.16014C50.1319 7.86287 50.8657 7.71423 51.7112 7.71423C52.3521 7.71423 52.8909 7.77461 53.3276 7.89538C53.7735 8.01614 54.1683 8.20199 54.512 8.45278C54.6142 8.5178 54.6653 8.60142 54.6653 8.70365C54.6653 8.77793 54.6281 8.87545 54.5538 8.99621L53.9825 9.98563C53.9175 10.1157 53.8385 10.1807 53.7456 10.1807C53.6898 10.1807 53.6016 10.1435 53.4808 10.0692C53.23 9.91127 52.9931 9.79515 52.7701 9.72086C52.5565 9.64651 52.2871 9.60937 51.962 9.60937C51.4974 9.60937 51.1212 9.758 50.8332 10.0553C50.5546 10.3526 50.4152 10.7613 50.4152 11.2815C50.4152 11.811 50.5592 12.2198 50.8472 12.5077C51.1351 12.7865 51.53 12.9258 52.0316 12.9258C52.3289 12.9258 52.5983 12.884 52.8399 12.8004C53.0814 12.7168 53.3276 12.6006 53.5783 12.452C53.7084 12.3777 53.8013 12.3406 53.8571 12.3406C53.9407 12.3406 54.015 12.4056 54.08 12.5356L54.7071 13.6086C54.7535 13.7015 54.7768 13.7758 54.7768 13.8316C54.7768 13.9152 54.721 13.9941 54.6095 14.0685C54.2194 14.3193 53.7921 14.505 53.3276 14.6258C52.8724 14.7559 52.3242 14.8209 51.6833 14.8209Z" fill="black"/>
<path d="M58.3098 14.8209C57.4366 14.8209 56.7352 14.5422 56.2057 13.9848C55.6855 13.4182 55.4253 12.6239 55.4253 11.602C55.4253 10.8217 55.6018 10.1389 55.9549 9.55362C56.3171 8.96834 56.8234 8.5178 57.4737 8.20199C58.1333 7.87684 58.8904 7.71423 59.745 7.71423C60.4511 7.71423 61.0735 7.79322 61.6123 7.95113C62.1604 8.09976 62.662 8.31812 63.1173 8.60605V14.1799C63.1173 14.3564 63.0848 14.4725 63.0197 14.5283C62.9547 14.584 62.8246 14.6119 62.6295 14.6119H61.2082C61.106 14.6119 61.027 14.5979 60.9714 14.5701C60.9156 14.5329 60.8691 14.4772 60.832 14.4029L60.6508 13.9848C60.3814 14.2728 60.0563 14.4819 59.6754 14.6119C59.3038 14.7513 58.8486 14.8209 58.3098 14.8209ZM59.3549 12.9258C59.7172 12.9258 60.0005 12.8375 60.2049 12.661C60.4093 12.4846 60.5115 12.2337 60.5115 11.9086V9.73476C60.335 9.65114 60.112 9.60937 59.8426 9.60937C59.3503 9.60937 58.9555 9.78124 58.6582 10.1249C58.3702 10.4687 58.2262 10.9517 58.2262 11.5742C58.2262 12.4752 58.6024 12.9258 59.3549 12.9258Z" fill="black"/>
<path d="M71.8705 14.0823C71.9355 14.1567 71.968 14.2402 71.968 14.3332C71.968 14.4167 71.9401 14.4865 71.8844 14.5422C71.8287 14.5886 71.7543 14.6119 71.6614 14.6119H69.5016C69.3715 14.6119 69.274 14.6026 69.209 14.584C69.1532 14.5561 69.0928 14.505 69.0278 14.4307L67.1327 11.8528V13.9152C67.1327 14.1567 67.0769 14.3332 66.9655 14.4446C66.854 14.5561 66.6635 14.6119 66.3941 14.6119H65.0425C64.7731 14.6119 64.5826 14.5561 64.4712 14.4446C64.369 14.3332 64.3179 14.1567 64.3179 13.9152V5.84699C64.3179 5.60546 64.3736 5.42895 64.4851 5.31747C64.5966 5.19671 64.7824 5.13632 65.0425 5.13632H66.3941C66.6635 5.13632 66.854 5.19671 66.9655 5.31747C67.0769 5.42895 67.1327 5.60546 67.1327 5.84699V10.5151L68.9721 8.11834C69.0278 8.04399 69.0882 7.99294 69.1532 7.96507C69.2182 7.9372 69.3158 7.92322 69.4459 7.92322H71.6057C71.6986 7.92322 71.7683 7.9511 71.8147 8.00685C71.8705 8.05333 71.8983 8.11834 71.8983 8.20196C71.8983 8.29485 71.8658 8.37847 71.8008 8.45276L69.418 11.184L71.8705 14.0823Z" fill="black"/>
<path d="M76.3952 14.8209C75.6147 14.8209 74.9182 14.6909 74.305 14.4308C73.7012 14.1706 73.2226 13.7805 72.8696 13.2603C72.5166 12.74 72.3401 12.1037 72.3401 11.3512C72.3401 10.1714 72.6745 9.27032 73.3435 8.6479C74.0125 8.02548 74.9739 7.71423 76.2279 7.71423C77.4544 7.71423 78.3833 8.02085 79.0146 8.63393C79.656 9.23774 79.976 10.0785 79.976 11.1561C79.976 11.6206 79.7719 11.8528 79.3628 11.8528H74.9877C74.9877 12.2523 75.1361 12.5589 75.4337 12.7725C75.7399 12.9862 76.1997 13.093 76.8129 13.093C77.1937 13.093 77.5101 13.0605 77.7606 12.9955C78.0205 12.9211 78.2812 12.8144 78.5411 12.675C78.6526 12.6285 78.7272 12.6053 78.7641 12.6053C78.8473 12.6053 78.9176 12.661 78.9733 12.7725L79.4468 13.6643C79.4931 13.7572 79.5163 13.8269 79.5163 13.8733C79.5163 13.957 79.4606 14.036 79.3491 14.1102C78.9682 14.3611 78.5367 14.5422 78.0531 14.6537C77.5702 14.7652 77.0178 14.8209 76.3952 14.8209ZM77.4681 10.4733C77.4681 10.1203 77.366 9.84626 77.1611 9.65114C76.957 9.4561 76.6507 9.35858 76.2417 9.35858C75.8333 9.35858 75.522 9.46073 75.3084 9.66512C75.0949 9.86016 74.9877 10.1296 74.9877 10.4733H77.4681Z" fill="black"/>
<path d="M84.7523 14.8209C83.9718 14.8209 83.2333 14.7419 82.5368 14.584C81.8403 14.4168 81.2778 14.1846 80.8506 13.8873C80.6928 13.7851 80.6139 13.6783 80.6139 13.5668C80.6139 13.4924 80.6414 13.4135 80.6971 13.3299L81.3799 12.243C81.4545 12.1315 81.529 12.0758 81.6029 12.0758C81.6499 12.0758 81.7288 12.1083 81.8403 12.1733C82.1835 12.3684 82.5737 12.5263 83.0103 12.6471C83.4469 12.7679 83.8791 12.8282 84.3063 12.8282C84.7428 12.8282 85.0636 12.7632 85.2677 12.6331C85.4813 12.5031 85.5885 12.2941 85.5885 12.0061C85.5885 11.7274 85.4726 11.5091 85.2402 11.3511C85.0172 11.1932 84.5944 10.9935 83.9718 10.752C83.0335 10.3989 82.3001 10.0041 81.7701 9.56757C81.2503 9.12166 80.9904 8.51777 80.9904 7.75606C80.9904 6.83635 81.3198 6.13498 81.9793 5.65191C82.6389 5.16884 83.5171 4.92731 84.6132 4.92731C85.3749 4.92731 86.025 4.99698 86.5637 5.13632C87.1118 5.26638 87.5766 5.47076 87.9574 5.74945C88.1152 5.87022 88.1941 5.98169 88.1941 6.08388C88.1941 6.14891 88.1666 6.22323 88.1109 6.30683L87.4281 7.39373C87.3442 7.50521 87.2696 7.56094 87.2052 7.56094C87.1581 7.56094 87.0792 7.52844 86.9677 7.46341C86.429 7.1104 85.7883 6.93389 85.0447 6.93389C84.6458 6.93389 84.3389 6.99892 84.1253 7.12898C83.9117 7.25903 83.8045 7.4727 83.8045 7.76996C83.8045 7.97434 83.8603 8.14159 83.9718 8.27162C84.0833 8.40164 84.2324 8.51777 84.4178 8.62C84.6132 8.71289 84.9101 8.83365 85.3097 8.98229L85.5747 9.07981C86.2618 9.34921 86.8004 9.60934 87.1907 9.86014C87.5903 10.1017 87.8922 10.4036 88.0964 10.7659C88.3013 11.1189 88.4034 11.5649 88.4034 12.1037C88.4034 12.9304 88.092 13.59 87.4694 14.0823C86.8562 14.5747 85.9505 14.8209 84.7523 14.8209Z" fill="black"/>
<path d="M91.3638 14.6119C91.2248 14.6119 91.1176 14.5887 91.0431 14.5422C90.9692 14.4958 90.9135 14.4029 90.8765 14.2635L89.0789 8.24376C89.06 8.18801 89.0506 8.14624 89.0506 8.11837C89.0506 7.98834 89.144 7.92325 89.3294 7.92325H91.169C91.2899 7.92325 91.3776 7.94649 91.4333 7.99297C91.4891 8.03011 91.5267 8.09512 91.5448 8.18801L92.2978 11.3512L93.2447 8.80117C93.2918 8.68967 93.3381 8.61539 93.3845 8.57818C93.4402 8.53177 93.5329 8.50853 93.6632 8.50853H94.5407C94.671 8.50853 94.7593 8.53177 94.8057 8.57818C94.8614 8.61539 94.9128 8.68967 94.9592 8.80117L95.8924 11.3512L96.6591 8.18801C96.6866 8.09512 96.7243 8.03011 96.7706 7.99297C96.8169 7.94649 96.9009 7.92325 97.0211 7.92325H98.8745C99.0606 7.92325 99.1533 7.98834 99.1533 8.11837C99.1533 8.14624 99.1439 8.18801 99.1258 8.24376L97.3143 14.2635C97.2767 14.4029 97.2209 14.4958 97.1471 14.5422C97.0819 14.5887 96.9798 14.6119 96.8401 14.6119H95.4746C95.3443 14.6119 95.2473 14.5887 95.1822 14.5422C95.117 14.4865 95.0612 14.3936 95.0149 14.2635L94.0954 11.7414L93.1752 14.2635C93.1383 14.3936 93.0826 14.4865 93.008 14.5422C92.9428 14.5887 92.8458 14.6119 92.7155 14.6119H91.3638Z" fill="black"/>
<path d="M102.686 14.8209C101.813 14.8209 101.111 14.5422 100.582 13.9848C100.061 13.4182 99.8012 12.6239 99.8012 11.602C99.8012 10.8217 99.9779 10.1389 100.33 9.55362C100.693 8.96834 101.199 8.5178 101.849 8.20199C102.509 7.87684 103.266 7.71423 104.121 7.71423C104.826 7.71423 105.449 7.79322 105.988 7.95113C106.536 8.09976 107.038 8.31812 107.493 8.60605V14.1799C107.493 14.3564 107.46 14.4725 107.395 14.5283C107.33 14.584 107.2 14.6119 107.005 14.6119H105.584C105.482 14.6119 105.403 14.5979 105.347 14.5701C105.291 14.5329 105.245 14.4772 105.208 14.4029L105.026 13.9848C104.757 14.2728 104.432 14.4819 104.051 14.6119C103.68 14.7513 103.224 14.8209 102.686 14.8209ZM103.73 12.9258C104.093 12.9258 104.376 12.8375 104.58 12.661C104.785 12.4846 104.887 12.2337 104.887 11.9086V9.73476C104.711 9.65114 104.488 9.60937 104.218 9.60937C103.726 9.60937 103.331 9.78124 103.034 10.1249C102.746 10.4687 102.602 10.9517 102.602 11.5742C102.602 12.4752 102.978 12.9258 103.73 12.9258Z" fill="black"/>
<path d="M109.418 17.4266C109.149 17.4266 108.958 17.371 108.847 17.2595C108.745 17.148 108.693 16.9715 108.693 16.7299V8.74542C109.112 8.44815 109.637 8.20199 110.268 8.00687C110.9 7.81183 111.56 7.71423 112.247 7.71423C115.052 7.71423 116.455 8.90333 116.455 11.2815C116.455 12.3591 116.158 13.2184 115.563 13.8594C114.969 14.5004 114.128 14.8209 113.041 14.8209C112.735 14.8209 112.437 14.7838 112.15 14.7094C111.871 14.6351 111.639 14.5329 111.453 14.4029V16.7299C111.453 16.9715 111.397 17.148 111.285 17.2595C111.174 17.371 110.983 17.4266 110.714 17.4266H109.418ZM112.442 12.9398C112.842 12.9398 113.139 12.7911 113.334 12.4938C113.538 12.1873 113.64 11.7785 113.64 11.2676C113.64 10.6637 113.52 10.2411 113.278 9.99953C113.046 9.74874 112.683 9.62327 112.191 9.62327C111.875 9.62327 111.625 9.66511 111.439 9.74874V11.9643C111.439 12.2802 111.527 12.5217 111.704 12.6889C111.88 12.8561 112.127 12.9398 112.442 12.9398Z" fill="black"/>
<path fill-rule="evenodd" clip-rule="evenodd" d="M3.79421 3.56617C3.52255 2.11147 4.63876 0.767517 6.11861 0.767517C7.42454 0.767517 8.48319 1.82618 8.48319 3.1321V6.04727C8.80985 6.02422 9.14173 6.0124 9.47788 6.0124C9.80086 6.0124 10.1199 6.02331 10.4341 6.04461V3.1321C10.4341 1.82618 11.4928 0.767517 12.7987 0.767517C14.2786 0.767517 15.3947 2.11147 15.1231 3.56617L14.4832 6.9928C16.6793 7.95162 18.34 9.61688 18.34 11.7094V12.9754C18.34 14.6962 17.2016 16.137 15.61 17.1096C14.006 18.0897 11.8362 18.6724 9.47788 18.6724C7.11957 18.6724 4.94975 18.0897 3.34581 17.1096C1.7543 16.137 0.615875 14.6962 0.615875 12.9754V11.7094C0.615875 9.62796 2.25942 7.96907 4.43702 7.00837L3.79421 3.56617ZM13.6632 7.44299L14.412 3.43337C14.6005 2.42373 13.8258 1.49095 12.7987 1.49095C11.8923 1.49095 11.1576 2.22571 11.1576 3.1321V6.84187C10.9201 6.81142 10.6788 6.78729 10.4341 6.76979C10.1205 6.74736 9.80144 6.73583 9.47788 6.73583C9.14115 6.73583 8.8092 6.74833 8.48319 6.7726C8.23855 6.79083 7.99724 6.81568 7.75976 6.84686V3.1321C7.75976 2.22571 7.02499 1.49095 6.11861 1.49095C5.09151 1.49095 4.31679 2.42372 4.50534 3.43337L5.25661 7.4563C2.90804 8.32867 1.33931 9.90713 1.33931 11.7094V12.9754C1.33931 15.7223 4.98308 17.949 9.47788 17.949C13.9727 17.949 17.6165 15.7223 17.6165 12.9754V11.7094C17.6165 9.89787 16.0317 8.3126 13.6632 7.44299Z" fill="#633001"/>
<path d="M17.6164 12.9755C17.6164 15.7223 13.9726 17.9491 9.47775 17.9491C4.98295 17.9491 1.33917 15.7223 1.33917 12.9755V11.7094H17.6164V12.9755Z" fill="#FEDC90"/>
<path fill-rule="evenodd" clip-rule="evenodd" d="M4.50521 3.43324C4.31666 2.42359 5.09137 1.49081 6.11847 1.49081C7.02486 1.49081 7.75963 2.22558 7.75963 3.13197V6.84673C8.31349 6.77399 8.88834 6.73569 9.47775 6.73569C10.0536 6.73569 10.6154 6.77223 11.1574 6.84173V3.13197C11.1574 2.22558 11.8922 1.49081 12.7986 1.49081C13.8257 1.49081 14.6004 2.42359 14.4119 3.43324L13.663 7.44286C16.0316 8.31246 17.6164 9.8978 17.6164 11.7093C17.6164 14.4562 13.9726 16.6829 9.47775 16.6829C4.98295 16.6829 1.33917 14.4562 1.33917 11.7093C1.33917 9.90699 2.9079 8.32854 5.25647 7.45616L4.50521 3.43324Z" fill="#D1884F"/>
<path d="M7.21739 11.3478C7.21739 12.097 6.81253 12.7043 6.3131 12.7043C5.81367 12.7043 5.40881 12.097 5.40881 11.3478C5.40881 10.5987 5.81367 9.99142 6.3131 9.99142C6.81253 9.99142 7.21739 10.5987 7.21739 11.3478Z" fill="#633001"/>
<path d="M13.4569 11.3478C13.4569 12.097 13.052 12.7043 12.5526 12.7043C12.0532 12.7043 11.6483 12.097 11.6483 11.3478C11.6483 10.5987 12.0532 9.99142 12.5526 9.99142C13.052 9.99142 13.4569 10.5987 13.4569 11.3478Z" fill="#633001"/>
</g>
<defs>
<clipPath id="clip0_33:87">
<rect width="115.839" height="18.8239" fill="white" transform="translate(0.615875 0.307953)"/>
</clipPath>
</defs>
</svg>
