<svg width="106" height="27" viewBox="0 0 106 27" fill="none" xmlns="http://www.w3.org/2000/svg">
<path d="M5.7891 12.6835C5.78913 12.5343 5.81863 12.3865 5.87592 12.2487C5.9332 12.1109 6.01714 11.9858 6.12291 11.8806C6.22868 11.7753 6.3542 11.692 6.49226 11.6354C6.63032 11.5788 6.77821 11.55 6.92742 11.5507L8.81464 11.5568C9.11554 11.5568 9.40413 11.6764 9.6169 11.8891C9.82967 12.1019 9.94921 12.3905 9.94921 12.6914V19.8279C10.1618 19.7649 10.4338 19.6978 10.7331 19.6273C10.9405 19.5785 11.1253 19.4611 11.2576 19.2941C11.3899 19.1271 11.4619 18.9203 11.462 18.7072V9.85552C11.462 9.55459 11.5815 9.26598 11.7943 9.05317C12.007 8.84037 12.2956 8.72078 12.5966 8.72072H14.4895C14.7904 8.72078 15.079 8.84037 15.2918 9.05317C15.5045 9.26598 15.6241 9.55459 15.6241 9.85552V18.0713C15.6241 18.0713 16.0976 17.8797 16.5586 17.685C16.7299 17.6125 16.8761 17.4912 16.979 17.3362C17.0818 17.1812 17.1367 16.9994 17.1368 16.8134V7.01897C17.1368 6.7181 17.2563 6.42955 17.4691 6.21678C17.6818 6.00402 17.9703 5.88446 18.2712 5.8844H20.1621C20.4629 5.88469 20.7512 6.00435 20.9637 6.2171C21.1762 6.42984 21.2956 6.71825 21.2956 7.01897V15.0843C22.935 13.8962 24.5965 12.4672 25.915 10.7489C26.1063 10.4995 26.2328 10.2066 26.2834 9.89637C26.334 9.58613 26.307 9.2682 26.2048 8.97094C25.5945 7.21503 24.6243 5.60587 23.3564 4.24642C22.0885 2.88697 20.5508 1.80718 18.8416 1.07614C17.1324 0.3451 15.2894 -0.0210902 13.4306 0.00100453C11.5718 0.0230993 9.73802 0.432992 8.0467 1.20445C6.35537 1.97591 4.84372 3.09195 3.60847 4.48115C2.37322 5.87036 1.44158 7.50213 0.873154 9.27205C0.304732 11.042 0.112051 12.9111 0.307439 14.7597C0.502828 16.6084 1.08198 18.3959 2.00785 20.0079C2.16915 20.286 2.40647 20.5122 2.69192 20.6601C2.97737 20.808 3.29909 20.8713 3.61929 20.8427C3.977 20.8112 4.42237 20.7667 4.95188 20.7046C5.18234 20.6784 5.3951 20.5683 5.54965 20.3953C5.7042 20.2224 5.78974 19.9986 5.78998 19.7667V12.6835" fill="#12161C"/>
<path d="M5.74878 24.1286C7.74199 25.5786 10.0975 26.449 12.5546 26.6434C15.0118 26.8378 17.4749 26.3487 19.6713 25.2301C21.8677 24.1116 23.7119 22.4072 24.9998 20.3056C26.2877 18.204 26.9692 15.7871 26.9687 13.3222C26.9687 13.0139 26.9544 12.7104 26.9339 12.4077C22.0522 19.6885 13.0386 23.0922 5.74878 24.1286Z" fill="#F0B90B"/>
<path d="M38.4673 13.0756C39.1832 13.207 39.8293 13.5878 40.2911 14.1504C40.7515 14.704 40.9984 15.4041 40.9871 16.124C40.9871 17.1578 40.6406 17.9771 39.9475 18.5821C39.2544 19.1871 38.25 19.4896 36.9343 19.4896H31.9828V7.04916H36.8462C38.0914 7.04916 39.0459 7.32816 39.7096 7.88616C40.3733 8.44416 40.7052 9.21068 40.7052 10.1857C40.7371 10.8765 40.5181 11.5556 40.0885 12.0976C39.6683 12.5906 39.0994 12.9338 38.4673 13.0756ZM33.9916 12.406H36.4762C37.181 12.406 37.7184 12.2415 38.0885 11.9126C38.2763 11.7383 38.4234 11.5248 38.5194 11.2873C38.6153 11.0497 38.6577 10.7939 38.6435 10.5381C38.6566 10.2851 38.6136 10.0322 38.5176 9.7977C38.4217 9.56317 38.2751 9.3527 38.0885 9.18131C37.7184 8.85238 37.1575 8.68792 36.4057 8.68792H33.9916V12.406ZM36.529 17.8332C37.2926 17.8332 37.8829 17.66 38.2999 17.3134C38.5089 17.1355 38.674 16.9117 38.7825 16.6596C38.891 16.4075 38.9399 16.1338 38.9255 15.8597C38.9391 15.5836 38.889 15.308 38.779 15.0544C38.669 14.8007 38.502 14.5759 38.2911 14.3971C37.8682 14.0447 37.275 13.8685 36.5114 13.8685H33.9916V17.8332H36.529ZM46.062 9.65708C47.2015 9.65708 48.1149 9.94782 48.8021 10.5293C49.4969 11.1245 49.9459 11.9566 50.062 12.8641H48.1589C48.0952 12.3701 47.8541 11.9161 47.4805 11.5866C47.067 11.2485 46.5427 11.0758 46.0091 11.102C45.5875 11.075 45.1706 11.2035 44.8373 11.4632C44.6997 11.585 44.5911 11.7361 44.5195 11.9053C44.4478 12.0745 44.4149 12.2576 44.4232 12.4412C44.4177 12.5788 44.4416 12.7159 44.4933 12.8435C44.5449 12.9711 44.6232 13.0863 44.7228 13.1813C44.9388 13.3789 45.194 13.529 45.4717 13.6218C45.8912 13.7611 46.3176 13.8787 46.7492 13.9742C47.3511 14.1017 47.9429 14.2725 48.5201 14.4852C48.9724 14.6614 49.3725 14.9494 49.6831 15.3222C50.0269 15.7669 50.1989 16.3205 50.1677 16.8817C50.1778 17.26 50.0994 17.6354 49.9388 17.978C49.7782 18.3206 49.5398 18.621 49.2426 18.8553C48.6259 19.3604 47.7947 19.613 46.7492 19.613C45.5392 19.613 44.5613 19.331 43.8153 18.7672C43.4437 18.4841 43.1329 18.1292 42.9013 17.7236C42.6697 17.3179 42.5221 16.8698 42.4673 16.4059H44.4232C44.4466 16.6571 44.5212 16.9009 44.6425 17.1221C44.7637 17.3433 44.929 17.5374 45.1281 17.6923C45.5952 18.0391 46.1681 18.2135 46.7492 18.1857C47.1626 18.2092 47.5693 18.0737 47.8858 17.8068C48.0203 17.6863 48.1271 17.5381 48.1986 17.3722C48.2701 17.2064 48.3046 17.027 48.2999 16.8465C48.3073 16.6966 48.2828 16.5469 48.2282 16.4072C48.1735 16.2675 48.0898 16.1409 47.9827 16.0359C47.7543 15.8261 47.484 15.6669 47.1897 15.5689C46.7625 15.4279 46.3271 15.3131 45.8858 15.2253C45.3035 15.0965 44.7297 14.9317 44.1677 14.7319C43.7281 14.5681 43.3392 14.2916 43.04 13.9302C42.709 13.5001 42.5433 12.9655 42.573 12.4236C42.5622 12.0414 42.6401 11.6619 42.8006 11.3149C42.9611 10.9679 43.1999 10.6628 43.4981 10.4236C44.1149 9.91258 44.9695 9.65708 46.062 9.65708ZM56.4937 9.65708C57.7506 9.65708 58.7903 9.98894 59.6126 10.6527C60.4435 11.3311 60.9904 12.296 61.1456 13.3575H59.0135C58.9207 12.7879 58.6153 12.2746 58.1588 11.9214C57.6665 11.5621 57.0675 11.379 56.4584 11.4016C56.0957 11.3929 55.7353 11.4614 55.4011 11.6027C55.0669 11.744 54.7666 11.9547 54.5201 12.2209C54.0032 12.7672 53.7448 13.5689 53.7448 14.6262C53.7448 15.6835 54.0032 16.4882 54.5201 17.0403C54.7653 17.3088 55.0651 17.5216 55.3995 17.6645C55.7338 17.8074 56.0949 17.8769 56.4584 17.8685C57.0689 17.891 57.6687 17.7045 58.1588 17.3398C58.6144 16.9821 58.9194 16.4665 59.0135 15.8949H61.1456C60.9891 16.9584 60.4427 17.9256 59.6126 18.6086C58.7903 19.2782 57.7506 19.613 56.4937 19.613C55.6249 19.6303 54.7663 19.424 54.0003 19.0138C53.2783 18.6149 52.6876 18.0151 52.2999 17.287C51.8723 16.4666 51.6601 15.5511 51.6831 14.6262C51.6614 13.7071 51.8736 12.7976 52.2999 11.9831C52.6876 11.255 53.2783 10.6551 54.0003 10.2562C54.7663 9.84605 55.6249 9.63974 56.4937 9.65708ZM71.2601 16.1769C71.2641 16.7724 71.1122 17.3586 70.8196 17.8773C70.5059 18.4191 70.0403 18.8571 69.4804 19.1372C68.7961 19.4736 68.0398 19.6369 67.2777 19.613C66.4967 19.626 65.7219 19.4728 65.0046 19.1636C64.3692 18.891 63.8163 18.4566 63.4011 17.9037C62.9999 17.3587 62.7616 16.711 62.7139 16.0359H64.8637C64.9188 16.5691 65.1662 17.0639 65.5597 17.428C65.7798 17.6272 66.0371 17.7811 66.3168 17.8809C66.5965 17.9807 66.8931 18.0244 67.1896 18.0094C67.447 18.0257 67.705 17.9904 67.9486 17.9057C68.1922 17.821 68.4164 17.6885 68.6081 17.5161C68.7749 17.3507 68.9056 17.1526 68.992 16.9343C69.0784 16.7159 69.1187 16.482 69.1103 16.2473C69.1262 15.8473 68.9945 15.4553 68.7403 15.146C68.4889 14.8548 68.1759 14.623 67.824 14.4676C67.4598 14.3032 66.9606 14.1152 66.3262 13.9037C65.6765 13.7067 65.0432 13.4592 64.4319 13.1637C63.9372 12.9108 63.511 12.542 63.1897 12.0888C62.8266 11.5422 62.6476 10.894 62.6786 10.2386C62.6655 9.61537 62.8372 9.00223 63.172 8.47647C63.5179 7.95704 64.0078 7.5498 64.5817 7.30467C65.2489 7.01726 65.9699 6.87607 66.6962 6.89057C67.965 6.89057 68.9723 7.196 69.7183 7.80687C70.0821 8.09923 70.3829 8.46233 70.6025 8.87423C70.8221 9.28612 70.9559 9.73827 70.9958 10.2033H68.8284C68.7489 9.73856 68.5163 9.3137 68.1676 8.99629C67.761 8.64411 67.2333 8.464 66.6962 8.49409C66.2067 8.46967 65.7248 8.62299 65.3394 8.9258C65.1657 9.08062 65.0294 9.2729 64.9409 9.48811C64.8524 9.70332 64.8139 9.93583 64.8284 10.1681C64.814 10.5489 64.9393 10.9218 65.1808 11.2165C65.424 11.4987 65.7284 11.7217 66.0707 11.8685C66.429 12.0271 66.9194 12.2121 67.5421 12.4236C68.2042 12.6212 68.8494 12.8717 69.4716 13.1725C69.9777 13.431 70.4132 13.809 70.7403 14.2738C71.1104 14.8372 71.2924 15.5035 71.2601 16.1769ZM77.586 9.65708C78.843 9.65708 79.8827 9.98894 80.705 10.6527C81.5359 11.3311 82.0828 12.296 82.238 13.3575H80.1059C80.0131 12.7879 79.7076 12.2746 79.2512 11.9214C78.7589 11.5621 78.1599 11.379 77.5508 11.4016C77.1881 11.3929 76.8277 11.4614 76.4935 11.6027C76.1593 11.744 75.859 11.9547 75.6125 12.2209C75.0956 12.7672 74.8372 13.5689 74.8372 14.6262C74.8372 15.6835 75.0956 16.4882 75.6125 17.0403C75.8577 17.3088 76.1575 17.5216 76.4919 17.6645C76.8262 17.8074 77.1873 17.8769 77.5508 17.8685C78.1613 17.891 78.7611 17.7045 79.2512 17.3398C79.7068 16.9821 80.0117 16.4665 80.1059 15.8949H82.238C82.0815 16.9584 81.5351 17.9256 80.705 18.6086C79.8827 19.2782 78.843 19.613 77.586 19.613C76.7173 19.6303 75.8587 19.424 75.0927 19.0138C74.3707 18.6149 73.78 18.0151 73.3922 17.287C72.9647 16.4666 72.7525 15.5511 72.7755 14.6262C72.7538 13.7071 72.966 12.7976 73.3922 11.9831C73.78 11.255 74.3707 10.6551 75.0927 10.2562C75.8587 9.84605 76.7173 9.63974 77.586 9.65708ZM88.0706 9.65708C88.872 9.63366 89.6607 9.86164 90.3261 10.3091C90.9383 10.7302 91.4011 11.3349 91.6476 12.0359V9.78042H93.6564V19.4896H91.6476V17.2341C91.4011 17.9352 90.9383 18.5398 90.3261 18.961C89.6607 19.4084 88.872 19.6364 88.0706 19.613C87.2749 19.6264 86.4912 19.419 85.8063 19.0138C85.1304 18.6011 84.5887 18.0013 84.2468 17.287C83.8536 16.4563 83.6605 15.545 83.6829 14.6262C83.6617 13.7132 83.8548 12.8079 84.2468 11.9831C84.5887 11.2687 85.1304 10.6689 85.8063 10.2562C86.4912 9.85106 87.2749 9.64367 88.0706 9.65708ZM88.6873 11.4192C88.2902 11.4013 87.8939 11.4683 87.5247 11.6157C87.1555 11.7631 86.822 11.9874 86.5464 12.2738C86.0118 12.8435 85.7446 13.6277 85.7446 14.6262C85.7446 15.6247 86.0118 16.4089 86.5464 16.9786C86.822 17.265 87.1555 17.4894 87.5247 17.6367C87.8939 17.7841 88.2902 17.8511 88.6873 17.8332C89.2191 17.8417 89.7432 17.7046 90.2027 17.4368C90.6522 17.1692 91.0183 16.7818 91.26 16.3178C91.5281 15.7951 91.6614 15.2136 91.6476 14.6262C91.6594 14.0419 91.5262 13.4637 91.26 12.9434C91.0203 12.4758 90.6539 12.085 90.2027 11.8157C89.7432 11.5478 89.2191 11.4107 88.6873 11.4192ZM101.498 9.62183C102.626 9.62183 103.53 9.986 104.211 10.7143C104.893 11.4427 105.233 12.4823 105.233 13.8333V19.4896H103.225V14.0447C103.225 13.1754 103.001 12.5029 102.555 12.0271C102.318 11.785 102.031 11.5962 101.716 11.4732C101.4 11.3501 101.061 11.2957 100.722 11.3135C100.366 11.2978 100.011 11.358 99.6797 11.4902C99.3486 11.6223 99.0493 11.8234 98.8018 12.08C98.3201 12.591 98.0793 13.3399 98.0793 14.3267V19.4896H96.0705V9.78042H98.0793V11.9126C98.3115 11.2182 98.7709 10.6223 99.3833 10.2209C100.013 9.81602 100.749 9.60749 101.498 9.62183Z" fill="#12161C"/>
</svg>
