<svg width="121" height="32" viewBox="0 0 121 32" fill="none" xmlns="http://www.w3.org/2000/svg">
<path d="M49.9795 12.4555C49.6531 11.1834 48.8304 10.2526 47.2216 10.2526C44.8475 10.2526 43.8547 12.3463 43.8547 14.471C43.8547 16.5957 44.8475 18.6906 47.2216 18.6906C48.9453 18.6906 49.8898 17.4036 50.0438 15.7902H51.9364C51.7813 18.4424 49.9048 20.2718 47.225 20.2718C43.9052 20.2718 41.9196 17.6345 41.9196 14.4699C41.9196 11.3052 43.8983 8.66336 47.2181 8.66336C49.7152 8.6783 51.6848 10.0595 51.918 12.4486L49.9795 12.4555Z" fill="#4C4C4C"/>
<path d="M53.0822 15.9856C53.0822 13.5345 54.5553 11.7672 57.1305 11.7672C59.7057 11.7672 61.1788 13.5345 61.1788 15.9856C61.1788 18.4366 59.7057 20.2212 57.1305 20.2212C54.5553 20.2212 53.0822 18.4527 53.0822 15.9856ZM59.4103 15.9856C59.4103 14.6066 58.7128 13.1633 57.1305 13.1633C55.5482 13.1633 54.8506 14.6055 54.8506 15.9856C54.8506 17.3657 55.5482 18.825 57.1305 18.825C58.7128 18.825 59.4103 17.3817 59.4103 15.9856Z" fill="#4C4C4C"/>
<path d="M62.6991 8.92767H64.4676V10.6031H62.6991V8.92767ZM62.6991 11.9843H64.4676V20.004H62.6991V11.9843Z" fill="#4C4C4C"/>
<path d="M66.3912 11.9843H68.0666V13.1633L68.0976 13.1944C68.3516 12.7576 68.7164 12.3956 69.155 12.1448C69.5936 11.894 70.0906 11.7634 70.5958 11.766C72.3333 11.766 73.4341 12.6968 73.4341 14.4952V20.0029H71.6656V14.9617C71.6346 13.7057 71.1382 13.1633 70.0994 13.1633C68.9204 13.1633 68.1597 14.093 68.1597 15.272V20.004H66.3912V11.9843Z" fill="#4C4C4C"/>
<path d="M85.208 20.004H83.967L83.6728 18.7009C82.6386 19.8799 81.6871 20.2672 80.3404 20.2672C77.0229 20.2695 75.0326 17.6265 75.0326 14.4653C75.0326 11.304 77.0229 8.66336 80.3381 8.66336C82.7512 8.66336 84.7898 9.95037 85.0839 12.4486H83.1913C83.0052 10.9903 81.7342 10.2457 80.3381 10.2457C77.964 10.2457 76.9712 12.3394 76.9712 14.4641C76.9712 16.5888 77.964 18.6837 80.3381 18.6837C82.3226 18.7147 83.4085 17.5208 83.4407 15.6431H80.4932V14.1711H85.2046L85.208 20.004Z" fill="#4C4C4C"/>
<path d="M88.4508 16.451C88.4508 17.7081 89.1334 18.825 90.6066 18.825C91.6304 18.825 92.2509 18.3746 92.5601 17.4909H94.2366C93.8494 19.2433 92.3601 20.2212 90.6066 20.2212C88.0946 20.2212 86.6823 18.4677 86.6823 16.0017C86.6823 13.7207 88.1762 11.7672 90.5606 11.7672C93.0886 11.7672 94.64 14.047 94.3458 16.451H88.4508ZM92.5773 15.288C92.5152 14.1711 91.7545 13.1633 90.5606 13.1633C89.3345 13.1633 88.4979 14.093 88.4508 15.288H92.5773Z" fill="#4C4C4C"/>
<path d="M101.11 14.6675C100.969 13.6896 100.256 13.1633 99.279 13.1633C98.3597 13.1633 97.0761 13.6437 97.0761 16.0786C97.0761 17.4128 97.6656 18.825 99.2008 18.825C100.225 18.825 100.938 18.1425 101.11 16.9945H102.878C102.552 19.0732 101.269 20.2212 99.2008 20.2212C96.6877 20.2212 95.3076 18.4366 95.3076 16.0786C95.3076 13.6586 96.6268 11.7672 99.2629 11.7672C101.124 11.7672 102.71 12.6979 102.878 14.6675H101.11Z" fill="#4C4C4C"/>
<path d="M104.372 8.92767H106.14V15.226L109.336 11.9843H111.508L108.436 14.9307L111.802 20.004H109.642L107.191 16.1097L106.136 17.1335V20.0063H104.372V8.92767Z" fill="#4C4C4C"/>
<path d="M112.279 15.9856C112.279 13.5345 113.752 11.7672 116.327 11.7672C118.902 11.7672 120.377 13.5345 120.377 15.9856C120.377 18.4366 118.902 20.2212 116.327 20.2212C113.752 20.2212 112.279 18.4527 112.279 15.9856ZM118.608 15.9856C118.608 14.6066 117.91 13.1633 116.327 13.1633C114.745 13.1633 114.047 14.6055 114.047 15.9856C114.047 17.3657 114.745 18.825 116.327 18.825C117.91 18.825 118.608 17.3817 118.608 15.9856Z" fill="#4C4C4C"/>
<path d="M32.0923 15.7879C32.1061 18.9243 31.1896 21.9943 29.4586 24.6098C27.7276 27.2253 25.2599 29.2687 22.3675 30.4817C19.4751 31.6947 16.288 32.0228 13.2092 31.4244C10.1304 30.826 7.29818 29.3281 5.0707 27.1201C2.84321 24.912 1.32052 22.093 0.695172 19.0196C0.0698272 15.9462 0.369919 12.7563 1.5575 9.8534C2.74508 6.95051 4.7668 4.46497 7.36701 2.7111C9.96722 0.957236 13.0291 0.0138179 16.1655 0.000150769C20.3711 -0.0181754 24.4117 1.63485 27.3985 4.5956C30.3854 7.55635 32.0737 11.5823 32.0923 15.7879Z" fill="#8DC63F"/>
<path d="M30.9029 15.7936C30.9161 18.6943 30.0688 21.5338 28.4681 23.9529C26.8675 26.3721 24.5855 28.2623 21.9106 29.3844C19.2357 30.5066 16.2881 30.8104 13.4406 30.2573C10.5931 29.7042 7.97349 28.3192 5.91314 26.2773C3.85279 24.2355 2.4442 21.6285 1.86551 18.786C1.28681 15.9436 1.564 12.9934 2.66201 10.3085C3.76003 7.62364 5.62956 5.32465 8.03419 3.70229C10.4388 2.07993 13.2705 1.20707 16.1712 1.19408C20.0607 1.17698 23.7976 2.70543 26.5603 5.44328C29.3229 8.18114 30.885 11.9042 30.9029 15.7936Z" fill="#F9E988"/>
<path d="M16.5045 2.14441C17.4368 1.97892 18.391 1.97892 19.3233 2.14441C20.2646 2.29346 21.1746 2.59832 22.0157 3.04646C22.8522 3.50611 23.575 4.13008 24.2944 4.71498C25.0137 5.29989 25.7296 5.89858 26.4111 6.55357C27.1067 7.19836 27.7137 7.93254 28.2163 8.7369C28.7338 9.53489 29.158 10.3897 29.4804 11.2845C30.0928 13.084 30.3054 15.0226 29.9998 16.8715H29.909C29.6022 15.0387 29.1862 13.292 28.53 11.6304C28.222 10.7936 27.8597 9.97795 27.4453 9.1885C27.0129 8.39894 26.5364 7.63433 26.0181 6.89831C25.4909 6.15423 24.8449 5.502 24.1059 4.96779C23.3613 4.4369 22.5052 4.09331 21.6767 3.76696C20.8482 3.44061 20.0266 3.10277 19.1624 2.85456C18.2983 2.60635 17.4204 2.42019 16.5034 2.23978L16.5045 2.14441Z" fill="white"/>
<path d="M23.6739 10.6168C22.6098 10.3089 21.5066 9.87221 20.3897 9.43095C20.3253 9.15056 20.0771 8.80123 19.5749 8.37491C18.8453 7.74174 17.4744 7.75783 16.2896 8.03822C14.9819 7.73025 13.6903 7.62109 12.4504 7.9233C2.30944 10.7168 8.05963 17.5322 4.33649 24.3833C4.86623 25.5071 10.5762 32.064 18.8384 30.3047C18.8384 30.3047 16.0127 23.5145 22.3891 20.2556C27.5613 17.6023 31.2983 12.6933 23.6739 10.6168Z" fill="#8BC53F"/>
<path d="M24.9264 15.0766C24.9271 15.1982 24.8917 15.3172 24.8247 15.4187C24.7577 15.5202 24.6621 15.5995 24.5501 15.6467C24.438 15.6938 24.3144 15.7067 24.1951 15.6836C24.0757 15.6606 23.9658 15.6027 23.8793 15.5172C23.7929 15.4317 23.7337 15.3225 23.7093 15.2033C23.6849 15.0842 23.6964 14.9605 23.7423 14.8479C23.7882 14.7353 23.8665 14.6389 23.9672 14.5708C24.0679 14.5027 24.1866 14.4659 24.3082 14.4652C24.4711 14.4646 24.6277 14.5286 24.7436 14.6432C24.8594 14.7578 24.9252 14.9136 24.9264 15.0766Z" fill="white"/>
<path d="M16.2896 8.03362C17.0285 8.08648 19.7002 8.95291 20.3897 9.42635C19.8151 7.76013 17.8811 7.53835 16.2896 8.03362Z" fill="#009345"/>
<path d="M16.9929 12.2474C16.9931 12.8084 16.8269 13.3568 16.5155 13.8234C16.204 14.2899 15.7611 14.6536 15.2429 14.8684C14.7247 15.0832 14.1545 15.1396 13.6042 15.0303C13.054 14.921 12.5486 14.651 12.1519 14.2544C11.7551 13.8578 11.4849 13.3525 11.3754 12.8023C11.2659 12.2521 11.322 11.6818 11.5366 11.1636C11.7512 10.6453 12.1147 10.2023 12.5811 9.8906C13.0475 9.57893 13.5959 9.41257 14.1568 9.41257C14.5292 9.41242 14.898 9.48563 15.242 9.62803C15.5861 9.77043 15.8988 9.97922 16.1621 10.2425C16.4255 10.5057 16.6344 10.8183 16.7769 11.1623C16.9195 11.5063 16.9929 11.8751 16.9929 12.2474Z" fill="white"/>
<path d="M16.1517 12.2727C16.1517 12.6673 16.0347 13.053 15.8155 13.381C15.5963 13.7091 15.2848 13.9648 14.9203 14.1158C14.5557 14.2667 14.1546 14.3062 13.7677 14.2293C13.3807 14.1523 13.0253 13.9623 12.7463 13.6833C12.4673 13.4043 12.2773 13.0489 12.2003 12.6619C12.1233 12.2749 12.1629 11.8738 12.3138 11.5093C12.4648 11.1448 12.7205 10.8333 13.0486 10.6141C13.3766 10.3949 13.7623 10.2779 14.1569 10.2779C14.6859 10.2779 15.1933 10.488 15.5674 10.8621C15.9416 11.2363 16.1517 11.7437 16.1517 12.2727Z" fill="#58595B"/>
<path d="M27.2235 16.3268C24.9253 17.9459 22.3122 19.1744 18.6051 19.1744C16.87 19.1744 16.5183 17.3358 15.3715 18.2344C14.7797 18.7009 12.6929 19.7443 11.037 19.665C9.38114 19.5857 6.6968 18.6147 5.94873 15.08C5.65225 18.6147 5.50057 21.2186 4.17334 24.2029C6.81631 28.4351 13.1181 31.6997 18.8384 30.2932C18.2236 26.0013 21.9743 21.7978 24.0876 19.6466C24.8919 18.8319 26.4203 17.5024 27.2235 16.3245V16.3268Z" fill="#8BC53F"/>
<path d="M27.1339 16.4325C26.4203 17.0829 25.5711 17.5644 24.7069 17.9896C23.8323 18.4049 22.9204 18.7369 21.9835 18.9813C21.0458 19.2237 20.0679 19.4065 19.0774 19.3168C18.0869 19.2272 17.0745 18.8905 16.4183 18.1482L16.4494 18.1125C17.2537 18.6342 18.1822 18.8181 19.1061 18.8445C20.0426 18.873 20.9793 18.7959 21.8985 18.6147C22.827 18.4203 23.7353 18.1395 24.6115 17.7759C25.4883 17.4139 26.3559 16.9945 27.1028 16.3969L27.1339 16.4325Z" fill="#58595B"/>
</svg>
