<svg width="133" height="26" viewBox="0 0 133 26" fill="none" xmlns="http://www.w3.org/2000/svg">
<path d="M11.3548 6.10352e-05L0.37677 6.33606V19.0081L11.3548 25.3441L22.3328 19.0081V6.33606L11.3548 6.10352e-05ZM11.3548 6.10352e-05L0.37677 6.33606V19.0081L11.3548 25.3441L22.3328 19.0081V6.33606L11.3548 6.10352e-05Z" fill="white"/>
<path d="M15.6888 20.3941H14.1268L12.2568 18.6781V17.7981L14.1928 15.9501V13.0241L16.7228 11.3741L19.6048 13.5521L15.6888 20.3941ZM9.22077 15.7741L9.50677 13.0241L8.56077 10.5601H14.1488L13.2248 13.0241L13.4888 15.7741H11.3328H9.22077ZM10.4968 18.6781L8.62677 20.4161H7.04277L3.10477 13.5521L6.00877 11.3961L8.56077 13.0241V15.9501L10.4968 17.7981V18.6781ZM7.02077 5.47807H15.6668L16.7008 9.87807H6.00877L7.02077 5.47807ZM11.3548 6.10352e-05L0.37677 6.33606V19.0081L11.3548 25.3441L22.3328 19.0081V6.33606L11.3548 6.10352e-05Z" fill="#03316C"/>
<path d="M34.6528 18.5461C31.7488 18.5461 29.6148 16.2801 29.6148 13.4861C29.6148 10.6921 31.7708 8.36008 34.6748 8.36008C36.5228 8.36008 37.6668 9.04208 38.5688 10.0321L37.1828 11.5281C36.5008 10.8021 35.7748 10.3181 34.6528 10.3181C33.0248 10.3181 31.8368 11.7261 31.8368 13.4421C31.8368 15.2021 33.0468 16.6101 34.7628 16.6101C35.8188 16.6101 36.5888 16.1041 37.2928 15.4001L38.6348 16.7421C37.6668 17.7761 36.5448 18.5461 34.6528 18.5461Z" fill="#002E73"/>
<path d="M42.8808 18.5461H40.6368V8.38206H42.8808V10.7581C43.4968 9.30607 44.6188 8.29406 46.3348 8.38206V10.7581H46.2028C44.2448 10.7581 42.8808 12.0341 42.8808 14.6301V18.5461Z" fill="#002E73"/>
<path d="M58.0608 8.33807L53.1108 21.2741H50.8448L51.9228 18.5461L47.6768 8.33807H50.0748L52.9568 15.8841L55.7288 8.33807H58.0608Z" fill="#002E73"/>
<path d="M64.6608 10.2961C63.1428 10.2961 61.8228 11.5281 61.8228 13.4421C61.8228 15.3561 63.1648 16.5881 64.6608 16.5881C66.2008 16.5881 67.4548 15.3781 67.4548 13.4421C67.4548 11.5061 66.1788 10.2961 64.6608 10.2961ZM65.1668 18.5241C63.5608 18.5241 62.5488 17.7101 61.8668 16.8081V21.2741H59.6228V8.33807H61.8668V10.1641C62.5928 9.15207 63.6048 8.33807 65.1668 8.33807C67.4768 8.33807 69.7208 10.1641 69.7208 13.4201C69.7208 16.6761 67.4988 18.5241 65.1668 18.5241Z" fill="#002E73"/>
<path d="M74.6268 10.4721V15.2681C74.6268 16.1261 75.0668 16.4781 75.8368 16.4781H76.7168V18.4801H75.1768C73.5488 18.4801 72.3828 17.7541 72.3828 15.6201V10.4721H71.1508V8.55806H72.3828V5.87405H74.6268V8.55806H76.7168V10.4721H74.6268Z" fill="#002E73"/>
<path d="M83.7788 10.2961C81.9748 10.2961 80.8308 11.7041 80.8308 13.4201C80.8308 15.1581 82.0628 16.5881 83.8008 16.5881C85.6048 16.5881 86.7488 15.1801 86.7488 13.4641C86.7928 11.7261 85.5388 10.2961 83.7788 10.2961ZM83.7788 18.5461C80.8088 18.5461 78.6088 16.2801 78.6088 13.4861C78.6088 10.6701 80.8308 8.36008 83.8228 8.36008C86.8148 8.36008 89.0148 10.6261 89.0148 13.4421C89.0148 16.2141 86.8148 18.5461 83.7788 18.5461Z" fill="#002E73"/>
<path d="M110.421 10.2961C108.617 10.2961 107.473 11.7041 107.473 13.4201C107.473 15.1581 108.705 16.5881 110.443 16.5881C112.247 16.5881 113.391 15.1801 113.391 13.4641C113.413 11.7261 112.181 10.2961 110.421 10.2961ZM110.421 18.5461C107.451 18.5461 105.251 16.2801 105.251 13.4861C105.251 10.6701 107.473 8.36008 110.465 8.36008C113.457 8.36008 115.657 10.6261 115.657 13.4421C115.657 16.2141 113.435 18.5461 110.421 18.5461Z" fill="#002E73"/>
<path d="M128.945 8.33807C131.079 8.33807 132.377 9.68007 132.377 12.0781V18.5241H130.133V12.7601C130.133 11.1981 129.407 10.3841 128.153 10.3841C126.943 10.3841 126.063 11.2421 126.063 12.8041V18.5461H123.819V12.7601C123.819 11.2421 123.071 10.3841 121.839 10.3841C120.607 10.3841 119.749 11.3081 119.749 12.8261V18.5461H117.505V8.36007H119.749V10.0321C120.387 9.17407 121.223 8.36007 122.719 8.36007C124.127 8.36007 125.095 9.04207 125.623 10.0761C126.437 9.02007 127.471 8.33807 128.945 8.33807Z" fill="#002E73"/>
<path d="M93.1287 16.4781V17.622L93.0627 17.732L92.0727 18.282H91.9407L90.9727 17.732L90.9067 17.622V16.4781L90.9727 16.3681L91.9407 15.8181H92.0727L93.0627 16.3681L93.1287 16.4781Z" fill="#002E73"/>
<path d="M99.9268 18.5241C97.0228 18.4581 94.9328 16.1481 94.9768 13.3541C95.0208 10.5601 97.2208 8.27206 100.147 8.33806C101.995 8.38206 103.139 9.08606 104.019 10.0981L102.611 11.5721C101.951 10.8461 101.225 10.3181 100.103 10.2961C98.4748 10.2741 97.2648 11.6381 97.2428 13.3761C97.1988 15.1361 98.3868 16.5661 100.103 16.5881C101.159 16.6101 101.951 16.1261 102.655 15.4221L103.975 16.7861C102.985 17.8201 101.841 18.5681 99.9268 18.5241Z" fill="#002E73"/>
</svg>
