<svg width="94" height="94" viewBox="0 0 94 94" fill="none" xmlns="http://www.w3.org/2000/svg">
<g clip-path="url(#clip0)">
<path d="M38.5547 93.25C17.7098 93.25 0.75 76.2903 0.75 55.4453C0.75 34.6003 17.7098 17.6406 38.5547 17.6406C59.3995 17.6406 76.3594 34.6005 76.3594 55.4453C76.3594 76.2901 59.3995 93.25 38.5547 93.25Z" fill="white" stroke="#30373C" stroke-width="1.5"/>
<path d="M38.5547 82.2344C23.7839 82.2344 11.7656 70.2161 11.7656 55.4453C11.7656 40.6745 23.7839 28.6562 38.5547 28.6562C53.3255 28.6562 65.3438 40.6745 65.3438 55.4453C65.3438 70.2161 53.3255 82.2344 38.5547 82.2344Z" fill="#9DF3DF" stroke="#30373C" stroke-width="1.5"/>
<path d="M38.5547 71.2188C29.8579 71.2188 22.7812 64.1421 22.7812 55.4453C22.7812 46.7485 29.8579 39.6719 38.5547 39.6719C47.2515 39.6719 54.3281 46.7485 54.3281 55.4453C54.3281 64.1421 47.2515 71.2188 38.5547 71.2188Z" fill="white" stroke="#30373C" stroke-width="1.5"/>
<path d="M82.4843 11.0155V11.5155H82.9843H91.246C92.1576 11.5155 92.9794 12.0647 93.3283 12.907C93.6772 13.7491 93.4843 14.7186 92.8397 15.363L92.8396 15.3631L81.824 26.3787L81.8239 26.3787C81.4014 26.8014 80.8282 27.0389 80.2304 27.0389H70.3554H70.1483L70.0019 27.1854L40.1484 57.039C39.2684 57.9191 37.8412 57.9192 36.961 57.039C36.0807 56.1588 36.0807 54.7318 36.961 53.8516L66.8144 23.9979L66.9608 23.8515V23.6444V13.7694C66.9608 13.1717 67.1982 12.5984 67.6209 12.1758L78.6365 1.16015C79.2811 0.515586 80.251 0.322898 81.0929 0.671515L81.2842 0.209551L81.0929 0.671523C81.9352 1.02024 82.4843 1.84211 82.4843 2.75379V11.0155Z" fill="#30373C" stroke="#30373C"/>
</g>
<defs>
<clipPath id="clip0">
<rect width="94" height="94" fill="white"/>
</clipPath>
</defs>
</svg>
