<svg width="92" height="92" viewBox="0 0 92 92" fill="none" xmlns="http://www.w3.org/2000/svg">
<g clip-path="url(#clip0_71:175)">
<path fill-rule="evenodd" clip-rule="evenodd" d="M69 92H23C16.9001 91.9997 11.0501 89.5764 6.73684 85.2632C2.42356 80.9499 0.000266853 75.0999 0 69L0 23C0.000266853 16.9001 2.42356 11.0501 6.73684 6.73684C11.0501 2.42356 16.9001 0.000266853 23 0L69 0C75.1 0 80.9501 2.42321 85.2635 6.73654C89.5768 11.0499 92 16.9 92 23V69C92 75.1 89.5768 80.9501 85.2635 85.2635C80.9501 89.5768 75.1 92 69 92Z" fill="#FF3A55"/>
<path fill-rule="evenodd" clip-rule="evenodd" d="M43.125 25.875H69C72.3167 25.8748 75.5067 24.6009 77.9111 22.3163C80.3156 20.0318 81.7509 16.9111 81.9206 13.5988C82.0903 10.2864 80.9815 7.03535 78.8232 4.517C76.6649 1.99866 73.6218 0.405349 70.3225 0.066125C69.8826 0.0416875 69.4471 0 69 0H23C16.9001 0.000266853 11.0501 2.42356 6.73684 6.73684C2.42356 11.0501 0.000266853 16.9001 0 23L0 69C0.000266863 57.5626 4.54387 46.5938 12.6313 38.5063C20.7188 30.4189 31.6876 25.8753 43.125 25.875Z" fill="#FF796C"/>
<path fill-rule="evenodd" clip-rule="evenodd" d="M69 46C64.451 46 60.0042 47.3489 56.2219 49.8762C52.4396 52.4035 49.4916 55.9956 47.7508 60.1983C46.01 64.401 45.5545 69.0255 46.4419 73.4871C47.3294 77.9486 49.5199 82.0468 52.7366 85.2635C55.9532 88.4801 60.0514 90.6706 64.5129 91.5581C68.9745 92.4455 73.599 91.99 77.8017 90.2492C82.0044 88.5084 85.5965 85.5604 88.1238 81.7781C90.6511 77.9958 92 73.549 92 69V23C92 29.1 89.5768 34.9501 85.2635 39.2635C80.9501 43.5768 75.1 46 69 46Z" fill="#E00047"/>
<path d="M63.9688 31.625C65.9535 31.625 67.5625 30.016 67.5625 28.0312C67.5625 26.0465 65.9535 24.4375 63.9688 24.4375C61.984 24.4375 60.375 26.0465 60.375 28.0312C60.375 30.016 61.984 31.625 63.9688 31.625Z" fill="white"/>
<path fill-rule="evenodd" clip-rule="evenodd" d="M46 34.5C48.2745 34.5 50.4979 35.1745 52.389 36.4381C54.2802 37.7017 55.7542 39.4978 56.6246 41.5991C57.495 43.7005 57.7227 46.0127 57.279 48.2435C56.8353 50.4743 55.74 52.5234 54.1317 54.1317C52.5234 55.74 50.4743 56.8353 48.2435 57.279C46.0127 57.7227 43.7005 57.495 41.5991 56.6246C39.4978 55.7542 37.7017 54.2802 36.4381 52.389C35.1745 50.4979 34.5 48.2745 34.5 46C34.5016 42.9505 35.7137 40.0264 37.87 37.87C40.0264 35.7137 42.9505 34.5016 46 34.5ZM46 28.75C49.4117 28.75 52.7468 29.7617 55.5836 31.6571C58.4203 33.5526 60.6313 36.2467 61.9369 39.3987C63.2425 42.5507 63.5841 46.0191 62.9185 49.3653C62.2529 52.7115 60.61 55.7851 58.1976 58.1976C55.7851 60.61 52.7115 62.2529 49.3653 62.9185C46.0191 63.5841 42.5507 63.2425 39.3987 61.9369C36.2467 60.6313 33.5526 58.4203 31.6571 55.5836C29.7617 52.7468 28.75 49.4117 28.75 46C28.7522 41.4257 30.5703 37.0393 33.8048 33.8048C37.0393 30.5703 41.4257 28.7522 46 28.75Z" fill="white"/>
<path fill-rule="evenodd" clip-rule="evenodd" d="M74.75 31.625C74.75 27.8125 73.2355 24.1562 70.5397 21.4603C67.8438 18.7645 64.1875 17.25 60.375 17.25H31.625C27.8125 17.25 24.1562 18.7645 21.4603 21.4603C18.7645 24.1562 17.25 27.8125 17.25 31.625V60.375C17.25 64.1875 18.7645 67.8438 21.4603 70.5397C24.1562 73.2355 27.8125 74.75 31.625 74.75H60.375C64.1875 74.75 67.8438 73.2355 70.5397 70.5397C73.2355 67.8438 74.75 64.1875 74.75 60.375V31.625ZM80.5 31.625C80.5 26.2875 78.3797 21.1686 74.6055 17.3945C70.8314 13.6203 65.7125 11.5 60.375 11.5H31.625C26.2875 11.5 21.1686 13.6203 17.3945 17.3945C13.6203 21.1686 11.5 26.2875 11.5 31.625V60.375C11.5 65.7125 13.6203 70.8314 17.3945 74.6055C21.1686 78.3797 26.2875 80.5 31.625 80.5H60.375C65.7125 80.5 70.8314 78.3797 74.6055 74.6055C78.3797 70.8314 80.5 65.7125 80.5 60.375V31.625Z" fill="white"/>
</g>
<defs>
<clipPath id="clip0_71:175">
<rect width="92" height="92" fill="white"/>
</clipPath>
</defs>
</svg>
