<svg width="92" height="92" viewBox="0 0 92 92" fill="none" xmlns="http://www.w3.org/2000/svg">
<g clip-path="url(#clip0_71:149)">
<path fill-rule="evenodd" clip-rule="evenodd" d="M69 92H23C16.9001 91.9997 11.0501 89.5764 6.73684 85.2632C2.42356 80.9499 0.000266853 75.0999 0 69L0 23C0.000266853 16.9001 2.42356 11.0501 6.73684 6.73684C11.0501 2.42356 16.9001 0.000266853 23 0L69 0C75.1 0 80.9501 2.42321 85.2635 6.73654C89.5768 11.0499 92 16.9 92 23V69C92 75.1 89.5768 80.9501 85.2635 85.2635C80.9501 89.5768 75.1 92 69 92Z" fill="#0F9DFF"/>
<path fill-rule="evenodd" clip-rule="evenodd" d="M43.125 25.875H69C72.3167 25.8748 75.5067 24.6009 77.9111 22.3163C80.3156 20.0318 81.7509 16.9111 81.9206 13.5988C82.0903 10.2864 80.9816 7.03535 78.8232 4.517C76.6649 1.99866 73.6218 0.405349 70.3225 0.066125C69.8826 0.0416875 69.4471 0 69 0H23C16.9001 0.000266853 11.0501 2.42356 6.73684 6.73684C2.42356 11.0501 0.000266853 16.9001 0 23L0 69C0.000266863 57.5626 4.54387 46.5938 12.6313 38.5063C20.7188 30.4189 31.6876 25.8753 43.125 25.875Z" fill="#00B7FF"/>
<path fill-rule="evenodd" clip-rule="evenodd" d="M69 46C64.4511 46 60.0043 47.3489 56.2219 49.8762C52.4396 52.4035 49.4916 55.9956 47.7508 60.1983C46.01 64.401 45.5545 69.0255 46.442 73.4871C47.3294 77.9486 49.52 82.0468 52.7366 85.2635C55.9532 88.4801 60.0514 90.6706 64.513 91.5581C68.9745 92.4455 73.5991 91.99 77.8018 90.2492C82.0045 88.5084 85.5966 85.5604 88.1238 81.7781C90.6511 77.9958 92 73.549 92 69V23C92 29.1 89.5768 34.9501 85.2635 39.2635C80.9502 43.5768 75.1 46 69 46Z" fill="#1D83FF"/>
<path d="M35.328 69.3679C57.3763 69.3679 69.6051 50.6459 68.8619 34.2929C70.4955 33.1126 71.9722 31.7291 73.2564 30.1759C73.3537 30.0557 73.4095 29.9073 73.4154 29.7528C73.4213 29.5982 73.377 29.446 73.2891 29.3187C73.2012 29.1915 73.0745 29.0962 72.9278 29.047C72.7812 28.9979 72.6226 28.9975 72.4758 29.046C71.5064 29.3575 70.5183 29.6076 69.5174 29.795C69.4383 29.809 69.3567 29.796 69.2858 29.758C69.2149 29.7201 69.1588 29.6594 69.1266 29.5857C69.0944 29.512 69.088 29.4296 69.1083 29.3518C69.1286 29.274 69.1745 29.2053 69.2386 29.1567C70.5268 28.1376 71.5887 26.8613 72.3565 25.4092C72.4229 25.2768 72.446 25.1269 72.4226 24.9807C72.3992 24.8345 72.3304 24.6994 72.226 24.5944C72.1217 24.4894 71.9869 24.4198 71.8409 24.3955C71.6948 24.3712 71.5448 24.3934 71.4121 24.459C69.5835 25.3302 67.6526 25.9682 65.6649 26.3579C64.0466 24.6326 61.9469 23.4337 59.6385 22.9169C57.3302 22.4 54.9198 22.5891 52.7202 23.4595C50.5206 24.3299 48.6335 25.8414 47.3039 27.7979C45.9743 29.7544 45.2635 32.0654 45.264 34.4309C45.2672 35.1827 45.3379 35.9328 45.4753 36.672C45.4854 36.7257 45.4832 36.7811 45.4687 36.8339C45.4542 36.8866 45.4279 36.9354 45.3917 36.9764C45.3555 37.0175 45.3104 37.0497 45.2599 37.0707C45.2093 37.0917 45.1547 37.1008 45.1001 37.0975C36.5651 36.5516 28.5632 32.758 22.7383 26.4959C22.57 26.3091 22.3554 26.1701 22.1161 26.0928C21.8769 26.0156 21.6214 26.0028 21.3757 26.0559C21.1299 26.109 20.9025 26.226 20.7165 26.3952C20.5304 26.5643 20.3923 26.7795 20.3161 27.0191C19.5112 29.2589 19.4238 31.6937 20.0661 33.9854C20.7083 36.2771 22.0482 38.3119 23.8998 39.8071C23.9599 39.8552 24.0026 39.9216 24.0212 39.9962C24.0399 40.0709 24.0336 40.1495 24.0032 40.2202C23.9729 40.2909 23.9202 40.3497 23.8532 40.3875C23.7862 40.4253 23.7087 40.4401 23.6325 40.4296C22.9585 40.3378 22.2941 40.1858 21.6473 39.9753C21.4112 39.8964 21.1585 39.8809 20.9146 39.9303C20.6706 39.9798 20.4439 40.0925 20.2572 40.2571C20.0657 40.418 19.9222 40.6285 19.8423 40.8656C19.7624 41.1027 19.7493 41.3571 19.8044 41.6012C22.3028 51.2209 29.0691 49.9947 29.0691 50.7235C29.0691 51.2166 27.7308 51.2166 25.9368 51.2209C25.694 51.222 25.4555 51.2855 25.2443 51.4053C25.0331 51.5251 24.8563 51.6972 24.7307 51.905C24.6052 52.1129 24.5351 52.3495 24.5273 52.5921C24.5195 52.8348 24.5742 53.0754 24.6861 53.2909C25.6303 54.9143 26.9453 56.2912 28.5235 57.3091C30.1018 58.3269 31.8985 58.9568 33.7668 59.1473C33.8394 59.1528 33.9086 59.1806 33.9649 59.2267C34.0213 59.2729 34.0621 59.3352 34.0819 59.4053C34.1016 59.4754 34.0994 59.5499 34.0754 59.6186C34.0515 59.6874 34.007 59.7472 33.948 59.7898C30.6845 62.1502 26.8699 63.6336 22.8691 64.098C22.5594 64.1225 22.2668 64.2499 22.0378 64.46C21.8089 64.67 21.6568 64.9506 21.6057 65.257C21.5546 65.5635 21.6075 65.8782 21.756 66.1512C21.9044 66.4241 22.1399 66.6395 22.425 66.7631C26.5073 68.4895 30.8956 69.3754 35.328 69.3679Z" fill="white"/>
</g>
<defs>
<clipPath id="clip0_71:149">
<rect width="92" height="92" fill="white"/>
</clipPath>
</defs>
</svg>
