<svg width="92" height="92" viewBox="0 0 92 92" fill="none" xmlns="http://www.w3.org/2000/svg">
<g clip-path="url(#clip0_71:183)">
<path fill-rule="evenodd" clip-rule="evenodd" d="M69 92H23C16.9001 91.9997 11.0501 89.5764 6.73684 85.2632C2.42356 80.9499 0.000266853 75.0999 0 69L0 23C0.000266853 16.9001 2.42356 11.0501 6.73684 6.73684C11.0501 2.42356 16.9001 0.000266853 23 0L69 0C75.1 0 80.9501 2.42321 85.2635 6.73654C89.5768 11.0499 92 16.9 92 23V69C92 75.1 89.5768 80.9501 85.2635 85.2635C80.9501 89.5768 75.1 92 69 92Z" fill="#2D0F1E"/>
<path fill-rule="evenodd" clip-rule="evenodd" d="M43.125 25.875H69C72.3167 25.8748 75.5067 24.6009 77.9111 22.3163C80.3156 20.0318 81.7509 16.9111 81.9206 13.5988C82.0903 10.2864 80.9815 7.03535 78.8232 4.517C76.6649 1.99866 73.6218 0.405349 70.3225 0.066125C69.8826 0.0416875 69.4471 0 69 0H23C16.9001 0.000266853 11.0501 2.42356 6.73684 6.73684C2.42356 11.0501 0.000266853 16.9001 0 23L0 69C0.000266863 57.5626 4.54387 46.5938 12.6313 38.5063C20.7188 30.4189 31.6876 25.8753 43.125 25.875Z" fill="#501432"/>
<path fill-rule="evenodd" clip-rule="evenodd" d="M69 46C64.451 46 60.0042 47.3489 56.2219 49.8762C52.4396 52.4035 49.4916 55.9956 47.7508 60.1983C46.01 64.401 45.5545 69.0255 46.4419 73.4871C47.3294 77.9486 49.5199 82.0468 52.7366 85.2635C55.9532 88.4801 60.0514 90.6706 64.5129 91.5581C68.9745 92.4455 73.599 91.99 77.8017 90.2492C82.0044 88.5084 85.5965 85.5604 88.1238 81.7781C90.6511 77.9958 92 73.549 92 69V23C92 29.1 89.5768 34.9501 85.2635 39.2635C80.9501 43.5768 75.1 46 69 46Z" fill="black"/>
<path fill-rule="evenodd" clip-rule="evenodd" d="M48.875 20.125C48.8748 19.7474 48.9491 19.3735 49.0936 19.0247C49.238 18.6758 49.4498 18.3588 49.7168 18.0918C49.9838 17.8248 50.3007 17.6131 50.6496 17.4686C50.9985 17.3242 51.3724 17.2499 51.75 17.25H57.8291C58.494 17.2501 59.1382 17.4807 59.6522 17.9024C60.1662 18.3241 60.5181 18.9109 60.6481 19.5629C61.1684 22.1563 62.5715 24.4892 64.6185 26.1643C66.6655 27.8394 69.2299 28.7532 71.875 28.75C72.2525 28.7499 72.6264 28.8242 72.9753 28.9686C73.3242 29.1131 73.6412 29.3248 73.9081 29.5918C74.1751 29.8588 74.3869 30.1758 74.5313 30.5247C74.6758 30.8735 74.7501 31.2474 74.75 31.625V37.375C74.7501 37.7526 74.6758 38.1265 74.5313 38.4754C74.3869 38.8242 74.1751 39.1412 73.9081 39.4082C73.6412 39.6752 73.3242 39.8869 72.9753 40.0314C72.6264 40.1758 72.2525 40.2501 71.875 40.25C67.837 40.2559 63.8693 39.1931 60.375 37.1694V60.375C60.3748 64.3551 59.1944 68.2457 56.983 71.5549C54.7717 74.8641 51.6288 77.4433 47.9516 78.9663C44.2745 80.4894 40.2283 80.8878 36.3247 80.1113C32.4211 79.3347 28.8355 77.4181 26.0211 74.6038C23.2068 71.7895 21.2902 68.2038 20.5137 64.3002C19.7372 60.3967 20.1356 56.3505 21.6586 52.6733C23.1816 48.9962 25.7608 45.8533 29.07 43.6419C32.3793 41.4306 36.2699 40.2502 40.25 40.25C40.6275 40.2499 41.0014 40.3242 41.3503 40.4686C41.6992 40.6131 42.0161 40.8248 42.2831 41.0918C42.5501 41.3588 42.7619 41.6758 42.9063 42.0247C43.0508 42.3735 43.1251 42.7474 43.125 43.125V48.875C43.1251 49.2526 43.0508 49.6265 42.9063 49.9754C42.7619 50.3242 42.5501 50.6412 42.2831 50.9082C42.0161 51.1752 41.6992 51.3869 41.3503 51.5314C41.0014 51.6758 40.6275 51.7501 40.25 51.75C38.5439 51.7499 36.8761 52.2556 35.4575 53.2034C34.0389 54.1511 32.9332 55.4983 32.2802 57.0745C31.6273 58.6506 31.4564 60.385 31.7892 62.0583C32.122 63.7316 32.9436 65.2687 34.1499 66.475C35.3563 67.6814 36.8933 68.5029 38.5666 68.8357C40.2399 69.1685 41.9743 68.9977 43.5505 68.3447C45.1267 67.6918 46.4738 66.5861 47.4216 65.1675C48.3693 63.7489 48.8751 62.0811 48.875 60.375V20.125Z" fill="#FE2C55"/>
<path fill-rule="evenodd" clip-rule="evenodd" d="M46 17.25C45.9998 16.8724 46.0741 16.4985 46.2186 16.1497C46.363 15.8008 46.5748 15.4838 46.8418 15.2168C47.1088 14.9498 47.4257 14.7381 47.7746 14.5936C48.1235 14.4492 48.4974 14.3749 48.875 14.375H54.9541C55.619 14.3751 56.2632 14.6057 56.7772 15.0274C57.2912 15.4491 57.6431 16.0359 57.7731 16.6879C58.2934 19.2813 59.6965 21.6142 61.7435 23.2893C63.7905 24.9644 66.3549 25.8782 69 25.875C69.3775 25.8749 69.7514 25.9492 70.1003 26.0936C70.4492 26.2381 70.7662 26.4498 71.0331 26.7168C71.3001 26.9838 71.5119 27.3008 71.6563 27.6497C71.8008 27.9985 71.8751 28.3724 71.875 28.75V34.5C71.8751 34.8776 71.8008 35.2515 71.6563 35.6004C71.5119 35.9492 71.3001 36.2662 71.0331 36.5332C70.7662 36.8002 70.4492 37.0119 70.1003 37.1564C69.7514 37.3008 69.3775 37.3751 69 37.375C64.962 37.3809 60.9943 36.3181 57.5 34.2944V57.5C57.4998 61.4801 56.3194 65.3707 54.108 68.6799C51.8967 71.9891 48.7538 74.5683 45.0766 76.0913C41.3995 77.6144 37.3533 78.0128 33.4497 77.2363C29.5461 76.4597 25.9605 74.5431 23.1461 71.7288C20.3318 68.9145 18.4152 65.3288 17.6387 61.4252C16.8622 57.5217 17.2606 53.4755 18.7836 49.7983C20.3066 46.1212 22.8858 42.9783 26.195 40.7669C29.5043 38.5556 33.3949 37.3752 37.375 37.375C37.7525 37.3749 38.1264 37.4492 38.4753 37.5936C38.8242 37.7381 39.1411 37.9498 39.4081 38.2168C39.6751 38.4838 39.8869 38.8008 40.0313 39.1497C40.1758 39.4985 40.2501 39.8724 40.25 40.25V46C40.2501 46.3776 40.1758 46.7515 40.0313 47.1004C39.8869 47.4492 39.6751 47.7662 39.4081 48.0332C39.1411 48.3002 38.8242 48.5119 38.4753 48.6564C38.1264 48.8008 37.7525 48.8751 37.375 48.875C35.6689 48.8749 34.0011 49.3806 32.5825 50.3284C31.1639 51.2761 30.0582 52.6233 29.4052 54.1995C28.7523 55.7756 28.5814 57.51 28.9142 59.1833C29.247 60.8566 30.0686 62.3937 31.2749 63.6C32.4813 64.8064 34.0183 65.6279 35.6916 65.9607C37.3649 66.2935 39.0993 66.1227 40.6755 65.4697C42.2517 64.8168 43.5988 63.7111 44.5466 62.2925C45.4943 60.8739 46.0001 59.2061 46 57.5V17.25Z" fill="#25F4EE"/>
<path fill-rule="evenodd" clip-rule="evenodd" d="M32.8843 64.8657C33.8635 66.4721 35.3411 67.7142 37.0917 68.4029C38.8424 69.0915 40.7703 69.1889 42.5815 68.6803C44.3927 68.1716 45.9879 67.0848 47.1241 65.5854C48.2603 64.086 48.8752 62.2563 48.875 60.375V20.125C48.8749 19.7474 48.9492 19.3735 49.0936 19.0247C49.2381 18.6758 49.4498 18.3588 49.7168 18.0918C49.9838 17.8248 50.3008 17.6131 50.6497 17.4686C50.9985 17.3242 51.3724 17.2499 51.75 17.25H57.8292C57.8536 17.25 57.8766 17.25 57.8996 17.2514C58.5755 19.9235 60.1957 22.2605 62.4608 23.8309C63.5154 25.3509 64.9228 26.5925 66.5624 27.4492C68.2021 28.306 70.025 28.7523 71.875 28.75V34.5C71.8751 34.8776 71.8008 35.2515 71.6564 35.6003C71.5119 35.9492 71.3002 36.2662 71.0332 36.5332C70.7662 36.8002 70.4492 37.0119 70.1004 37.1564C69.7515 37.3008 69.3776 37.3751 69 37.375C64.962 37.3809 60.9944 36.3181 57.5 34.2944V57.5C57.5001 61.3071 56.4202 65.0362 54.3859 68.2542C52.3516 71.4722 49.4461 74.0472 46.007 75.6801C42.5679 77.3131 38.7361 77.937 34.9565 77.4795C31.177 77.022 27.6047 75.5018 24.6546 73.0954C22.2486 70.1451 20.7288 66.5729 20.2715 62.7936C19.8142 59.0142 20.4382 55.1826 22.0711 51.7436C23.7039 48.3046 26.2787 45.3993 29.4965 43.3648C32.7143 41.3304 36.443 40.2503 40.25 40.25V46C40.2501 46.3776 40.1758 46.7515 40.0314 47.1003C39.8869 47.4492 39.6752 47.7662 39.4082 48.0332C39.1412 48.3002 38.8242 48.5119 38.4754 48.6564C38.1265 48.8008 37.7526 48.8751 37.375 48.875C35.494 48.8753 33.6646 49.4904 32.1655 50.6266C30.6664 51.7629 29.5798 53.358 29.0712 55.169C28.5626 56.9799 28.6599 58.9075 29.3483 60.6581C30.0367 62.4087 31.2784 63.8862 32.8843 64.8657Z" fill="white"/>
</g>
<defs>
<clipPath id="clip0_71:183">
<rect width="92" height="92" fill="white"/>
</clipPath>
</defs>
</svg>
