<svg width="92" height="92" viewBox="0 0 92 92" fill="none" xmlns="http://www.w3.org/2000/svg">
<path fill-rule="evenodd" clip-rule="evenodd" d="M69 92H23C16.9001 91.9997 11.0501 89.5764 6.73684 85.2632C2.42356 80.9499 0.000266853 75.0999 0 69L0 23C0.000266853 16.9001 2.42356 11.0501 6.73684 6.73684C11.0501 2.42356 16.9001 0.000266853 23 0L69 0C75.1 0 80.9501 2.42321 85.2635 6.73654C89.5768 11.0499 92 16.9 92 23V69C92 75.1 89.5768 80.9501 85.2635 85.2635C80.9501 89.5768 75.1 92 69 92Z" fill="#199BDF"/>
<path fill-rule="evenodd" clip-rule="evenodd" d="M43.125 25.875H69C72.3167 25.8748 75.5067 24.6009 77.9111 22.3163C80.3156 20.0318 81.7509 16.9111 81.9206 13.5988C82.0903 10.2864 80.9815 7.03535 78.8232 4.517C76.6649 1.99866 73.6218 0.405349 70.3225 0.066125C69.8826 0.0416875 69.4471 0 69 0H23C16.9001 0.000266853 11.0501 2.42356 6.73684 6.73684C2.42356 11.0501 0.000266853 16.9001 0 23L0 69C0.000266863 57.5626 4.54387 46.5938 12.6313 38.5063C20.7188 30.4189 31.6876 25.8753 43.125 25.875Z" fill="#32B4FF"/>
<path fill-rule="evenodd" clip-rule="evenodd" d="M69 46C64.451 46 60.0042 47.3489 56.2219 49.8762C52.4396 52.4035 49.4916 55.9956 47.7508 60.1983C46.01 64.401 45.5545 69.0255 46.4419 73.4871C47.3294 77.9486 49.5199 82.0468 52.7366 85.2635C55.9532 88.4801 60.0514 90.6706 64.5129 91.5581C68.9745 92.4455 73.599 91.99 77.8017 90.2492C82.0044 88.5084 85.5965 85.5604 88.1238 81.7781C90.6511 77.9958 92 73.549 92 69V23C92 29.1 89.5768 34.9501 85.2635 39.2635C80.9501 43.5768 75.1 46 69 46Z" fill="#0082BE"/>
<path fill-rule="evenodd" clip-rule="evenodd" d="M64.8025 24.4834C65.5091 24.1916 66.2807 24.0929 67.038 24.1975C67.7953 24.3021 68.5113 24.6061 69.1124 25.0784C69.7136 25.5507 70.1784 26.1743 70.4593 26.8854C70.7401 27.5965 70.8268 28.3694 70.7106 29.125C69.0353 40.0199 65.964 59.9839 64.3336 70.5811C64.2208 71.3144 63.9207 72.0062 63.4623 72.5896C63.0039 73.173 62.4028 73.6283 61.717 73.9115C61.0312 74.1946 60.284 74.296 59.5476 74.2059C58.8111 74.1159 58.1104 73.8373 57.5131 73.3972C51.7455 69.1479 43.0984 62.7769 38.7081 59.5411C38.3693 59.2914 38.0895 58.9704 37.8883 58.6007C37.6872 58.2311 37.5697 57.8217 37.5441 57.4016C37.5184 56.9816 37.5854 56.561 37.7401 56.1696C37.8949 55.7782 38.1336 55.4256 38.4396 55.1366C42.4624 51.3373 50.4748 43.7703 55.9874 38.5637C56.1173 38.4403 56.1964 38.2728 56.2092 38.0941C56.222 37.9155 56.1676 37.7384 56.0568 37.5978C55.9459 37.4571 55.7864 37.3629 55.6097 37.3336C55.433 37.3043 55.2517 37.3421 55.1014 37.4395C48.033 42.0496 37.2078 49.1092 31.9023 52.5692C30.908 53.2177 29.7905 53.6539 28.6198 53.8506C27.4492 54.0472 26.2505 54.0001 25.0989 53.712C22.1774 52.9818 17.9636 51.9281 14.2135 50.9909C13.6264 50.8442 13.1006 50.5159 12.7109 50.053C12.3212 49.59 12.0875 49.0158 12.0432 48.4123C11.9988 47.8088 12.1461 47.2066 12.4639 46.6916C12.7818 46.1767 13.254 45.7751 13.8133 45.5442C26.8676 40.1521 52.4145 29.6009 64.8025 24.4834Z" fill="white"/>
</svg>
