<svg width="92" height="92" viewBox="0 0 92 92" fill="none" xmlns="http://www.w3.org/2000/svg">
<g clip-path="url(#clip0_71:169)">
<path fill-rule="evenodd" clip-rule="evenodd" d="M46 92H23C16.9001 91.9997 11.0501 89.5764 6.73684 85.2632C2.42356 80.9499 0.000266853 75.0999 0 69L0 23C0.000266853 16.9001 2.42356 11.0501 6.73684 6.73684C11.0501 2.42356 16.9001 0.000266853 23 0L69 0C75.1 0 80.9501 2.42321 85.2635 6.73654C89.5768 11.0499 92 16.9 92 23V69C92 75.1 89.5768 80.9501 85.2635 85.2635C80.9501 89.5768 75.1 92 69 92H60.375C60.375 90.0938 59.6177 88.2656 58.2698 86.9177C56.9219 85.5698 55.0937 84.8125 53.1875 84.8125C51.2813 84.8125 49.4531 85.5698 48.1052 86.9177C46.7573 88.2656 46 90.0938 46 92Z" fill="#3764B9"/>
<path fill-rule="evenodd" clip-rule="evenodd" d="M43.125 25.875H69C72.3167 25.8748 75.5067 24.6009 77.9111 22.3163C80.3156 20.0318 81.7509 16.9111 81.9206 13.5988C82.0903 10.2864 80.9815 7.03535 78.8232 4.517C76.6649 1.99866 73.6218 0.405349 70.3225 0.066125C69.8826 0.0416875 69.4471 0 69 0H23C16.9001 0.000266853 11.0501 2.42356 6.73684 6.73684C2.42356 11.0501 0.000266853 16.9001 0 23L0 69C0.000266863 57.5626 4.54387 46.5938 12.6313 38.5063C20.7188 30.4189 31.6876 25.8753 43.125 25.875Z" fill="#507DD2"/>
<path fill-rule="evenodd" clip-rule="evenodd" d="M69.0001 46C64.4511 46 60.0043 47.3489 56.222 49.8762C52.4396 52.4035 49.4917 55.9956 47.7508 60.1983C46.01 64.401 45.5545 69.0255 46.442 73.4871C47.3295 77.9486 49.52 82.0468 52.7366 85.2635C55.9532 88.4801 60.0514 90.6706 64.513 91.5581C68.9746 92.4455 73.5991 91.99 77.8018 90.2492C82.0045 88.5084 85.5966 85.5604 88.1239 81.7781C90.6511 77.9958 92.0001 73.549 92.0001 69V23C92.0001 29.1 89.5769 34.9501 85.2635 39.2635C80.9502 43.5768 75.1 46 69.0001 46Z" fill="#1E4BA0"/>
<path fill-rule="evenodd" clip-rule="evenodd" d="M74.75 25.875C74.75 26.6375 74.4471 27.3688 73.9079 27.9079C73.3688 28.4471 72.6375 28.75 71.875 28.75H63.25C62.4875 28.75 61.7562 29.0529 61.2171 29.5921C60.6779 30.1312 60.375 30.8625 60.375 31.625V43.125H71.2425C71.6678 43.125 72.0879 43.2194 72.4723 43.4013C72.8568 43.5833 73.1961 43.8482 73.4657 44.1772C73.7354 44.5061 73.9288 44.8907 74.0318 45.3034C74.1349 45.716 74.1451 46.1464 74.0617 46.5635C73.528 49.2329 72.8029 52.8583 72.3367 55.1885C72.2064 55.8403 71.8543 56.4268 71.3403 56.8482C70.8263 57.2697 70.1822 57.5 69.5175 57.5H60.375V92H46V57.5H37.375C36.6125 57.5 35.8812 57.1971 35.3421 56.6579C34.8029 56.1188 34.5 55.3875 34.5 54.625V46C34.5 45.2375 34.8029 44.5062 35.3421 43.9671C35.8812 43.4279 36.6125 43.125 37.375 43.125H46V31.625C46 27.05 47.8174 22.6624 51.0524 19.4274C54.2874 16.1924 58.675 14.375 63.25 14.375H71.875C72.6375 14.375 73.3688 14.6779 73.9079 15.2171C74.4471 15.7562 74.75 16.4875 74.75 17.25V25.875Z" fill="white"/>
</g>
<defs>
<clipPath id="clip0_71:169">
<rect width="92" height="92" fill="white"/>
</clipPath>
</defs>
</svg>
