<svg width="92" height="92" viewBox="0 0 92 92" fill="none" xmlns="http://www.w3.org/2000/svg">
<g clip-path="url(#clip0_71:161)">
<path fill-rule="evenodd" clip-rule="evenodd" d="M69 92H23C19.9795 92.0003 16.9885 91.4057 14.1979 90.2499C11.4072 89.0942 8.8716 87.4 6.73579 85.2642C4.59997 83.1284 2.90582 80.5928 1.75008 77.8021C0.594341 75.0115 -0.000339718 72.0205 1.45593e-07 69V23C-0.000339718 19.9795 0.594341 16.9885 1.75008 14.1979C2.90582 11.4072 4.59997 8.8716 6.73579 6.73579C8.8716 4.59997 11.4072 2.90582 14.1979 1.75008C16.9885 0.594341 19.9795 -0.000339718 23 1.45593e-07H69C72.0205 -0.000339718 75.0115 0.594341 77.8021 1.75008C80.5928 2.90582 83.1284 4.59997 85.2642 6.73579C87.4 8.8716 89.0942 11.4072 90.2499 14.1979C91.4057 16.9885 92.0003 19.9795 92 23V69C92.0003 72.0205 91.4057 75.0115 90.2499 77.8021C89.0942 80.5928 87.4 83.1284 85.2642 85.2642C83.1284 87.4 80.5928 89.0942 77.8021 90.2499C75.0115 91.4057 72.0205 92.0003 69 92Z" fill="#7387DC"/>
<path fill-rule="evenodd" clip-rule="evenodd" d="M43.125 25.875H69C72.3167 25.8748 75.5067 24.6009 77.9111 22.3163C80.3156 20.0318 81.7509 16.9111 81.9206 13.5988C82.0903 10.2864 80.9815 7.03535 78.8232 4.517C76.6649 1.99866 73.6218 0.405349 70.3225 0.0661251C69.8769 0.0416876 69.4456 1.45593e-07 69 1.45593e-07H23C19.9795 -0.000339718 16.9885 0.594341 14.1979 1.75008C11.4072 2.90582 8.8716 4.59997 6.73579 6.73579C4.59997 8.8716 2.90582 11.4072 1.75008 14.1979C0.594341 16.9885 -0.000339718 19.9795 1.45593e-07 23V69C1.45593e-07 57.5625 4.54351 46.5935 12.631 38.506C20.7185 30.4185 31.6875 25.875 43.125 25.875Z" fill="#8CA0F5"/>
<path fill-rule="evenodd" clip-rule="evenodd" d="M69.0001 46C64.4511 46 60.0043 47.3489 56.222 49.8762C52.4396 52.4035 49.4917 55.9956 47.7508 60.1983C46.01 64.401 45.5545 69.0255 46.442 73.4871C47.3295 77.9486 49.52 82.0468 52.7366 85.2635C55.9532 88.4801 60.0514 90.6706 64.513 91.5581C68.9746 92.4455 73.5991 91.99 77.8018 90.2492C82.0045 88.5084 85.5966 85.5604 88.1239 81.7781C90.6511 77.9958 92.0001 73.549 92.0001 69V23C92.0004 26.0205 91.4057 29.0115 90.25 31.8021C89.0943 34.5928 87.4001 37.1284 85.2643 39.2642C83.1285 41.4 80.5928 43.0942 77.8022 44.2499C75.0116 45.4057 72.0206 46.0003 69.0001 46Z" fill="#5A6EC3"/>
<path d="M40.0056 45.2281C39.2711 45.1655 38.5348 45.3261 37.8931 45.689C37.2515 46.0519 36.7343 46.6 36.4094 47.2617C36.0845 47.9234 35.9669 48.6678 36.0721 49.3974C36.1774 50.127 36.5004 50.8079 36.9991 51.3508C37.4977 51.8938 38.1487 52.2735 38.8667 52.4403C39.5848 52.6071 40.3364 52.5531 41.0233 52.2856C41.7102 52.018 42.3003 51.5493 42.7164 50.9407C43.1324 50.3322 43.355 49.6122 43.355 48.875C43.3943 47.9473 43.0636 47.0419 42.4355 46.358C41.8074 45.6741 40.9333 45.2676 40.0056 45.2281Z" fill="white"/>
<path d="M51.9944 45.2281C51.2599 45.1655 50.5236 45.3261 49.8819 45.689C49.2402 46.0519 48.7231 46.6 48.3982 47.2617C48.0732 47.9234 47.9557 48.6678 48.0609 49.3974C48.1661 50.127 48.4892 50.8079 48.9878 51.3508C49.4865 51.8938 50.1374 52.2735 50.8555 52.4403C51.5735 52.6071 52.3252 52.5531 53.0121 52.2856C53.699 52.018 54.2891 51.5493 54.7052 50.9407C55.1212 50.3322 55.3438 49.6122 55.3438 48.875C55.3831 47.9473 55.0524 47.0419 54.4243 46.358C53.7962 45.6741 52.9221 45.2676 51.9944 45.2281Z" fill="white"/>
<path d="M74.75 24.4286C74.7523 23.5414 74.5796 22.6625 74.242 21.842C73.9043 21.0216 73.4082 20.2758 72.782 19.6472C72.1558 19.0187 71.4119 18.5197 70.5928 18.1789C69.7737 17.838 68.8954 17.662 68.0082 17.6609H23.9919C23.1047 17.662 22.2264 17.838 21.4073 18.1789C20.5881 18.5197 19.8442 19.0187 19.218 19.6472C18.5919 20.2758 18.0958 21.0216 17.7581 21.842C17.4204 22.6625 17.2478 23.5414 17.25 24.4286V67.9806C17.2476 68.8679 17.4202 69.747 17.7578 70.5676C18.0954 71.3881 18.5915 72.1341 19.2177 72.7628C19.8438 73.3915 20.5878 73.8906 21.407 74.2315C22.2262 74.5725 23.1046 74.7486 23.9919 74.7498H59.2106C59.4333 74.7505 59.6532 74.6993 59.8526 74.6002C60.0521 74.5011 60.2257 74.3568 60.3596 74.1789C60.4936 74.001 60.5842 73.7943 60.6243 73.5752C60.6644 73.3562 60.6529 73.1308 60.5906 72.9169C60.1019 71.2336 59.4694 68.9998 59.4694 68.9998C59.4694 68.9998 68.0225 77.0426 72.3206 81.0963C72.5251 81.2898 72.7817 81.419 73.0588 81.4682C73.3359 81.5173 73.6214 81.4842 73.8798 81.3728C74.1383 81.2615 74.3585 81.0768 74.5131 80.8417C74.6678 80.6066 74.7502 80.3313 74.75 80.0498V24.4286ZM55.6025 60.5501C55.4576 60.5568 55.3131 60.5293 55.1808 60.4699C55.0485 60.4105 54.9319 60.3208 54.8406 60.208L53.82 58.9531C53.7271 58.8387 53.6626 58.704 53.6317 58.5599C53.6008 58.4158 53.6044 58.2664 53.6423 58.124C53.6801 57.9816 53.7511 57.8502 53.8495 57.7404C53.9478 57.6307 54.0707 57.5457 54.2081 57.4926C56.093 56.8319 57.7324 55.6136 58.9088 53.9994C55.0439 56.4356 50.5686 57.7283 46 57.7283C41.4315 57.7283 36.9561 56.4356 33.0913 53.9994C34.2676 55.6136 35.907 56.8319 37.7919 57.4926C37.9293 57.5457 38.0522 57.6307 38.1506 57.7404C38.2489 57.8502 38.3199 57.9816 38.3578 58.124C38.3956 58.2664 38.3992 58.4158 38.3683 58.5599C38.3375 58.704 38.2729 58.8387 38.18 58.9531L37.1594 60.208C37.0681 60.3208 36.9516 60.4105 36.8192 60.4699C36.6869 60.5293 36.5424 60.5568 36.3975 60.5501C34.5206 60.5355 32.6737 60.0775 31.0074 59.2133C29.3411 58.3492 27.9027 57.1035 26.8094 55.5778C26.916 48.9168 28.5331 42.3669 31.5388 36.4217C34.1507 34.3932 37.3096 33.1922 40.6094 32.9731C40.661 32.9722 40.7121 32.9825 40.7593 33.0033C40.8065 33.0242 40.8485 33.0551 40.8825 33.0939C40.9219 33.1373 40.9496 33.19 40.963 33.247C40.9765 33.3041 40.9752 33.3636 40.9594 33.42C40.9436 33.4764 40.9138 33.5279 40.8727 33.5697C40.8316 33.6115 40.7806 33.6421 40.7244 33.6588C37.92 34.4616 35.3082 35.8267 33.0481 37.6709C37.0178 35.4933 41.4724 34.3517 46 34.3517C50.5277 34.3517 54.9823 35.4933 58.9519 37.6709C56.6918 35.8267 54.0801 34.4616 51.2756 33.6588C51.2195 33.6421 51.1684 33.6115 51.1273 33.5697C51.0862 33.5279 51.0564 33.4764 51.0406 33.42C51.0248 33.3636 51.0236 33.3041 51.037 33.247C51.0505 33.19 51.0782 33.1373 51.1175 33.0939C51.1515 33.0551 51.1936 33.0242 51.2407 33.0033C51.2879 32.9825 51.3391 32.9722 51.3906 32.9731C54.6905 33.1922 57.8494 34.3932 60.4613 36.4217C63.467 42.3669 65.084 48.9168 65.1906 55.5778C64.0973 57.1035 62.6589 58.3492 60.9926 59.2133C59.3264 60.0775 57.4795 60.5355 55.6025 60.5501Z" fill="white"/>
</g>
<defs>
<clipPath id="clip0_71:161">
<rect width="92" height="92" fill="white"/>
</clipPath>
</defs>
</svg>
