<svg width="64" height="64" viewBox="0 0 64 64" fill="none" xmlns="http://www.w3.org/2000/svg">
<g clip-path="url(#clip0_308_614)">
<path d="M60.1397 64H3.86032C1.72698 64 0 62.273 0 60.1397V3.86032C0 1.72698 1.72698 0 3.86032 0H60.1397C62.273 0 64 1.72698 64 3.86032V60.1397C64 62.273 62.273 64 60.1397 64Z" fill="#848484"/>
<path d="M56.4826 60.3429H7.51754C5.38421 60.3429 3.65723 58.6159 3.65723 56.4826V7.51748C3.65723 5.38415 5.38421 3.65717 7.51754 3.65717H56.4826C58.616 3.65717 60.3429 5.38415 60.3429 7.51748V56.4826C60.3429 58.6159 58.616 60.3429 56.4826 60.3429Z" fill="#5B554B"/>
<path d="M57.5394 61.5619H6.46133C4.24673 61.5619 2.43848 59.7536 2.43848 57.539V6.46091C2.43848 4.2463 4.24673 2.43805 6.46133 2.43805H57.5394C59.754 2.43805 61.5623 4.2463 61.5623 6.46091V57.539C61.5623 59.7536 59.754 61.5619 57.5394 61.5619Z" fill="#7A7369"/>
<path d="M56.4826 60.3429H7.51754C5.38421 60.3429 3.65723 58.616 3.65723 56.4826V7.51754C3.65723 5.38421 5.38421 3.65723 7.51754 3.65723H56.4826C58.616 3.65723 60.3429 5.38421 60.3429 7.51754V56.4826C60.3429 58.616 58.616 60.3429 56.4826 60.3429Z" fill="#5B554B"/>
<path d="M3.50048 30L29.5005 3.5H56.5005C59.7005 3.5 60.5005 7.16667 60.5005 9C44.6672 26.1667 12.0005 60.5 8.00048 60.5C4.00048 60.5 3.33381 57.5 3.50048 56V30Z" fill="#C4C4C4" fill-opacity="0.09"/>
<g filter="url(#filter0_i_308_614)">
<path d="M25.3494 44.9992C38.4641 44.9992 45.7161 33.7861 45.2923 23.9954C46.2576 23.2842 47.1524 22.4545 47.9058 21.53C47.9529 21.4588 48 21.364 48 21.2692C48 21.1744 47.9765 21.0795 47.9294 21.0084C47.8823 20.9373 47.8116 20.8662 47.7175 20.8425C47.6233 20.8188 47.5291 20.8188 47.4585 20.8425C46.8934 21.0321 46.3047 21.1744 45.6926 21.2929C45.6455 21.2929 45.5984 21.2929 45.5513 21.2692C45.5042 21.2455 45.4806 21.2218 45.4571 21.1744C45.4336 21.127 45.4336 21.0795 45.4571 21.0321C45.4806 20.9847 45.5042 20.9373 45.5277 20.9136C46.3047 20.2972 46.9169 19.5386 47.3878 18.6615C47.4349 18.5904 47.4349 18.4956 47.4349 18.4007C47.4114 18.3059 47.3878 18.2348 47.3172 18.1637C47.2466 18.0926 47.1759 18.0688 47.0817 18.0451C46.9876 18.0214 46.9169 18.0451 46.8227 18.0926C45.7396 18.6141 44.5859 18.9934 43.4087 19.2305C42.4433 18.1874 41.1954 17.4762 39.8298 17.168C38.4641 16.8598 37.0279 16.9784 35.7093 17.4999C34.3908 18.0214 33.2842 18.9223 32.4836 20.1076C31.6831 21.2692 31.2593 22.6679 31.2593 24.0665C31.2593 24.517 31.3063 24.9674 31.377 25.4178C31.377 25.4415 31.377 25.4889 31.377 25.5126C31.377 25.5363 31.3534 25.5837 31.3299 25.6074C31.3063 25.6312 31.2828 25.6549 31.2593 25.6549C31.2357 25.6786 31.1886 25.6786 31.1651 25.6786C26.1028 25.3467 21.3231 23.0709 17.862 19.3253C17.7678 19.2067 17.6265 19.1356 17.4852 19.0882C17.344 19.0408 17.2027 19.0408 17.0379 19.0645C16.8966 19.0882 16.7553 19.1593 16.6376 19.2779C16.5199 19.3727 16.4492 19.5149 16.4021 19.6572C15.9312 21.0084 15.8606 22.4545 16.2609 23.8295C16.6376 25.2044 17.4381 26.4135 18.5448 27.3143C18.5919 27.338 18.6154 27.3854 18.6154 27.4328C18.6154 27.4802 18.6154 27.5277 18.6154 27.5751C18.5919 27.6225 18.5683 27.6462 18.5212 27.6699C18.4741 27.6936 18.427 27.6936 18.38 27.6936C17.9797 27.6462 17.5794 27.5514 17.2027 27.4328C17.0614 27.3854 16.9201 27.3854 16.7789 27.4091C16.6376 27.4328 16.4963 27.5039 16.3786 27.5988C16.2609 27.6936 16.1902 27.8121 16.1431 27.9544C16.0961 28.0966 16.0961 28.2388 16.1196 28.4048C17.603 34.1654 21.6292 33.4305 21.6292 33.8572C21.6292 34.1417 20.8287 34.1417 19.7691 34.1654C19.6279 34.1654 19.4866 34.2128 19.3689 34.2839C19.2511 34.3551 19.1334 34.4499 19.0628 34.5921C18.9921 34.7107 18.945 34.8529 18.945 34.9951C18.945 35.1374 18.9686 35.2796 19.0392 35.4219C19.6043 36.3938 20.3813 37.2235 21.3231 37.8162C22.2649 38.4326 23.3245 38.8119 24.4311 38.9067C24.4782 38.9067 24.5253 38.9304 24.5488 38.9541C24.5724 38.9778 24.5959 39.0252 24.6195 39.0726C24.643 39.12 24.6195 39.1674 24.6195 39.1912C24.5959 39.2386 24.5724 39.2623 24.5488 39.286C22.6181 40.7084 20.3342 41.5855 17.9561 41.87C17.7678 41.8937 17.603 41.9648 17.4617 42.0833C17.3204 42.2019 17.2262 42.3678 17.2027 42.5574C17.1791 42.7471 17.2027 42.9368 17.2969 43.1027C17.391 43.2686 17.5323 43.3872 17.6971 43.4583C20.0988 44.4777 22.7123 45.0229 25.3494 44.9992Z" fill="#EE7219"/>
</g>
<path d="M43.6826 60.3429H56.4826C58.6159 60.3429 60.3429 58.6159 60.3429 56.4826V30.5372L43.6826 60.3429Z" fill="#494237"/>
<path d="M21.042 0L24.6179 3.65714L23.0128 6.50159V9.95556L21.7937 5.68889L21.9969 2.64127L21.042 0Z" fill="#282521"/>
<path d="M12.1094 64L11.9062 61.5619L12.597 60.3429V56.8889L12.8612 60.3429L12.3736 61.5619V64H12.1094Z" fill="#282521"/>
</g>
<defs>
<filter id="filter0_i_308_614" x="16" y="16.9999" width="33" height="29" filterUnits="userSpaceOnUse" color-interpolation-filters="sRGB">
<feFlood flood-opacity="0" result="BackgroundImageFix"/>
<feBlend mode="normal" in="SourceGraphic" in2="BackgroundImageFix" result="shape"/>
<feColorMatrix in="SourceAlpha" type="matrix" values="0 0 0 0 0 0 0 0 0 0 0 0 0 0 0 0 0 0 127 0" result="hardAlpha"/>
<feOffset dx="1" dy="1"/>
<feGaussianBlur stdDeviation="2.5"/>
<feComposite in2="hardAlpha" operator="arithmetic" k2="-1" k3="1"/>
<feColorMatrix type="matrix" values="0 0 0 0 0 0 0 0 0 0 0 0 0 0 0 0 0 0 1 0"/>
<feBlend mode="normal" in2="shape" result="effect1_innerShadow_308_614"/>
</filter>
<clipPath id="clip0_308_614">
<rect width="64" height="64" fill="white"/>
</clipPath>
</defs>
</svg>
