<svg width="64" height="64" viewBox="0 0 64 64" fill="none" xmlns="http://www.w3.org/2000/svg">
<path d="M60.1397 64H3.86032C1.72698 64 0 62.273 0 60.1397V3.86032C0 1.72698 1.72698 0 3.86032 0H60.1397C62.273 0 64 1.72698 64 3.86032V60.1397C64 62.273 62.273 64 60.1397 64Z" fill="#848484"/>
<path d="M56.4826 60.3429H7.51754C5.38421 60.3429 3.65723 58.6159 3.65723 56.4826V7.51748C3.65723 5.38415 5.38421 3.65717 7.51754 3.65717H56.4826C58.616 3.65717 60.3429 5.38415 60.3429 7.51748V56.4826C60.3429 58.6159 58.616 60.3429 56.4826 60.3429Z" fill="#5B554B"/>
<path d="M57.5394 61.5619H6.46133C4.24673 61.5619 2.43848 59.7536 2.43848 57.539V6.46091C2.43848 4.2463 4.24673 2.43805 6.46133 2.43805H57.5394C59.754 2.43805 61.5623 4.2463 61.5623 6.46091V57.539C61.5623 59.7536 59.754 61.5619 57.5394 61.5619Z" fill="#7A7369"/>
<path d="M56.4826 60.3429H7.51754C5.38421 60.3429 3.65723 58.6159 3.65723 56.4826V7.51748C3.65723 5.38415 5.38421 3.65717 7.51754 3.65717H56.4826C58.616 3.65717 60.3429 5.38415 60.3429 7.51748V56.4826C60.3429 58.6159 58.616 60.3429 56.4826 60.3429Z" fill="#5B554B"/>
<path d="M43.6826 60.3429H56.4826C58.6159 60.3429 60.3429 58.6159 60.3429 56.4826V30.5372L43.6826 60.3429Z" fill="#494237"/>
<path d="M50.042 0L53.6179 3.65714L52.0128 6.50159V9.95556L50.7937 5.68889L50.9969 2.64127L50.042 0Z" fill="#282521"/>
<path d="M44.1489 64L45 61.6L42.1064 60.4V57L41 60.4L43.0426 61.6V64H44.1489Z" fill="#282521"/>
<g filter="url(#filter0_i_308_615)">
<path fill-rule="evenodd" clip-rule="evenodd" d="M42.8548 20.1629C43.2278 20.0173 43.6351 19.968 44.0348 20.0202C44.4346 20.0724 44.8125 20.2242 45.1299 20.46C45.4472 20.6957 45.6926 21.007 45.8409 21.362C45.9891 21.717 46.0349 22.1028 45.9735 22.48C45.0892 27.9186 43.4679 37.8845 42.6072 43.1746C42.5477 43.5406 42.3893 43.886 42.1473 44.1772C41.9053 44.4684 41.588 44.6957 41.226 44.8371C40.864 44.9784 40.4695 45.029 40.0808 44.9841C39.692 44.9391 39.3221 44.8 39.0068 44.5803C35.9622 42.4591 31.3976 39.2788 29.08 37.6635C28.9012 37.5389 28.7534 37.3786 28.6473 37.1941C28.5411 37.0095 28.479 36.8052 28.4655 36.5955C28.452 36.3858 28.4873 36.1758 28.569 35.9805C28.6507 35.7851 28.7768 35.6091 28.9383 35.4648C31.0618 33.5682 35.2914 29.7908 38.2015 27.1917C38.27 27.1301 38.3117 27.0465 38.3185 26.9573C38.3253 26.8681 38.2966 26.7798 38.238 26.7095C38.1795 26.6393 38.0953 26.5923 38.0021 26.5777C37.9088 26.5631 37.8131 26.5819 37.7337 26.6306C34.0025 28.9319 28.288 32.4559 25.4873 34.1832C24.9625 34.5069 24.3726 34.7247 23.7546 34.8228C23.1366 34.921 22.5038 34.8974 21.8959 34.7537C20.3538 34.3891 18.1293 33.8631 16.1498 33.3953C15.8398 33.322 15.5623 33.1582 15.3565 32.9271C15.1508 32.696 15.0275 32.4093 15.0041 32.1081C14.9807 31.8068 15.0584 31.5062 15.2262 31.2491C15.394 30.9921 15.6432 30.7916 15.9385 30.6763C22.8296 27.9846 36.3154 22.7175 42.8548 20.1629Z" fill="#EE7219"/>
</g>
<path d="M3.02294 30L29.0229 3.5H56.0229C59.2229 3.5 60.0229 7.16667 60.0229 9C44.1896 26.1667 11.5229 60.5 7.52294 60.5C3.52294 60.5 2.85627 57.5 3.02294 56V30Z" fill="#C4C4C4" fill-opacity="0.09"/>
<defs>
<filter id="filter0_i_308_615" x="15" y="20" width="32" height="26" filterUnits="userSpaceOnUse" color-interpolation-filters="sRGB">
<feFlood flood-opacity="0" result="BackgroundImageFix"/>
<feBlend mode="normal" in="SourceGraphic" in2="BackgroundImageFix" result="shape"/>
<feColorMatrix in="SourceAlpha" type="matrix" values="0 0 0 0 0 0 0 0 0 0 0 0 0 0 0 0 0 0 127 0" result="hardAlpha"/>
<feOffset dx="1" dy="1"/>
<feGaussianBlur stdDeviation="2.5"/>
<feComposite in2="hardAlpha" operator="arithmetic" k2="-1" k3="1"/>
<feColorMatrix type="matrix" values="0 0 0 0 0 0 0 0 0 0 0 0 0 0 0 0 0 0 1 0"/>
<feBlend mode="normal" in2="shape" result="effect1_innerShadow_308_615"/>
</filter>
</defs>
</svg>
