<svg width="64" height="64" viewBox="0 0 64 64" fill="none" xmlns="http://www.w3.org/2000/svg">
<g clip-path="url(#clip0_308_616)">
<path d="M60.1397 64H3.86032C1.72698 64 0 62.273 0 60.1397V3.86032C0 1.72698 1.72698 0 3.86032 0H60.1397C62.273 0 64 1.72698 64 3.86032V60.1397C64 62.273 62.273 64 60.1397 64Z" fill="#848484"/>
<path d="M56.4826 60.3429H7.51754C5.38421 60.3429 3.65723 58.6159 3.65723 56.4826V7.51748C3.65723 5.38415 5.38421 3.65717 7.51754 3.65717H56.4826C58.616 3.65717 60.3429 5.38415 60.3429 7.51748V56.4826C60.3429 58.6159 58.616 60.3429 56.4826 60.3429Z" fill="#5B554B"/>
<path d="M57.5394 61.5619H6.46133C4.24673 61.5619 2.43848 59.7536 2.43848 57.539V6.46091C2.43848 4.2463 4.24673 2.43805 6.46133 2.43805H57.5394C59.754 2.43805 61.5623 4.2463 61.5623 6.46091V57.539C61.5623 59.7536 59.754 61.5619 57.5394 61.5619Z" fill="#7A7369"/>
<path d="M56.4826 60.3429H7.51754C5.38421 60.3429 3.65723 58.6159 3.65723 56.4826V7.51748C3.65723 5.38415 5.38421 3.65717 7.51754 3.65717H56.4826C58.616 3.65717 60.3429 5.38415 60.3429 7.51748V56.4826C60.3429 58.6159 58.616 60.3429 56.4826 60.3429Z" fill="#5B554B"/>
<path d="M43.6826 60.3429H56.4826C58.6159 60.3429 60.3429 58.6159 60.3429 56.4826V30.5372L43.6826 60.3429Z" fill="#494237"/>
<path d="M50.042 0L53.6179 3.65714L52.0128 6.50159V9.95556L50.7937 5.68889L50.9969 2.64127L50.042 0Z" fill="#282521"/>
<path d="M12.1094 64L11.9062 61.5619L12.597 60.3429V56.8889L12.8612 60.3429L12.3736 61.5619V64H12.1094Z" fill="#282521"/>
<g filter="url(#filter0_i_308_616)">
<path d="M29.0811 31.4239C28.7235 31.3934 28.3649 31.4717 28.0525 31.6484C27.74 31.8251 27.4882 32.092 27.3299 32.4142C27.1717 32.7364 27.1145 33.0989 27.1657 33.4542C27.2169 33.8095 27.3743 34.1411 27.6171 34.4054C27.8599 34.6698 28.1769 34.8547 28.5265 34.9359C28.8762 35.0172 29.2422 34.9909 29.5767 34.8606C29.9112 34.7303 30.1986 34.5021 30.4012 34.2057C30.6037 33.9094 30.7121 33.5588 30.7121 33.1998C30.7313 32.7481 30.5702 32.3072 30.2644 31.9741C29.9585 31.6411 29.5329 31.4432 29.0811 31.4239Z" fill="#AC6A0B"/>
</g>
<g filter="url(#filter1_i_308_616)">
<path d="M34.919 31.4239C34.5614 31.3934 34.2028 31.4717 33.8904 31.6484C33.5779 31.8251 33.3261 32.092 33.1678 32.4142C33.0096 32.7364 32.9524 33.0989 33.0036 33.4542C33.0548 33.8095 33.2122 34.1411 33.455 34.4054C33.6978 34.6698 34.0148 34.8547 34.3644 34.9359C34.7141 35.0172 35.0801 34.9909 35.4146 34.8606C35.7491 34.7303 36.0365 34.5021 36.2391 34.2057C36.4416 33.9094 36.55 33.5588 36.55 33.1998C36.5692 32.7481 36.4081 32.3072 36.1023 31.9741C35.7964 31.6411 35.3708 31.4432 34.919 31.4239Z" fill="#AC6A0B"/>
</g>
<g filter="url(#filter2_i_308_616)">
<path d="M46 21.2956C46.0011 20.8636 45.917 20.4355 45.7526 20.036C45.5881 19.6365 45.3466 19.2733 45.0417 18.9673C44.7367 18.6612 44.3745 18.4182 43.9756 18.2522C43.5767 18.0863 43.149 18.0006 42.717 18H21.283C20.851 18.0006 20.4233 18.0863 20.0244 18.2522C19.6255 18.4182 19.2633 18.6612 18.9584 18.9673C18.6534 19.2733 18.4119 19.6365 18.2474 20.036C18.083 20.4355 17.9989 20.8636 18 21.2956V42.5035C17.9988 42.9356 18.0829 43.3636 18.2473 43.7632C18.4117 44.1628 18.6533 44.5261 18.9582 44.8322C19.2631 45.1384 19.6254 45.3814 20.0243 45.5474C20.4232 45.7134 20.8509 45.7992 21.283 45.7998H38.433C38.5414 45.8001 38.6485 45.7752 38.7456 45.7269C38.8427 45.6787 38.9273 45.6084 38.9925 45.5218C39.0577 45.4352 39.1019 45.3345 39.1214 45.2278C39.1409 45.1212 39.1353 45.0114 39.105 44.9073C38.867 44.0876 38.559 42.9998 38.559 42.9998C38.559 42.9998 42.724 46.9163 44.817 48.8903C44.9165 48.9845 45.0415 49.0474 45.1764 49.0713C45.3114 49.0953 45.4504 49.0791 45.5763 49.0249C45.7021 48.9707 45.8093 48.8808 45.8846 48.7663C45.96 48.6518 46.0001 48.5177 46 48.3807V21.2956ZM36.676 38.8852C36.6054 38.8884 36.5351 38.875 36.4706 38.8461C36.4062 38.8172 36.3495 38.7735 36.305 38.7186L35.808 38.1075C35.7628 38.0518 35.7313 37.9862 35.7163 37.916C35.7012 37.8458 35.703 37.7731 35.7214 37.7038C35.7399 37.6344 35.7744 37.5704 35.8223 37.517C35.8702 37.4635 35.9301 37.4222 35.997 37.3963C36.9149 37.0746 37.7132 36.4813 38.286 35.6953C36.404 36.8816 34.2247 37.5111 32 37.5111C29.7753 37.5111 27.596 36.8816 25.714 35.6953C26.2868 36.4813 27.0851 37.0746 28.003 37.3963C28.0699 37.4222 28.1298 37.4635 28.1777 37.517C28.2256 37.5704 28.2601 37.6344 28.2786 37.7038C28.297 37.7731 28.2988 37.8458 28.2837 37.916C28.2687 37.9862 28.2372 38.0518 28.192 38.1075L27.695 38.7186C27.6505 38.7735 27.5938 38.8172 27.5294 38.8461C27.4649 38.875 27.3946 38.8884 27.324 38.8852C26.41 38.8781 25.5107 38.655 24.6993 38.2342C23.8879 37.8134 23.1874 37.2068 22.655 36.4639C22.7069 33.2203 23.4944 30.0308 24.958 27.1357C26.2299 26.1479 27.7681 25.5631 29.375 25.4564C29.4001 25.4559 29.425 25.4609 29.448 25.4711C29.471 25.4813 29.4914 25.4963 29.508 25.5152C29.5272 25.5363 29.5406 25.562 29.5472 25.5898C29.5537 25.6175 29.5532 25.6465 29.5455 25.674C29.5378 25.7015 29.5232 25.7266 29.5032 25.7469C29.4832 25.7672 29.4584 25.7822 29.431 25.7903C28.0654 26.1812 26.7936 26.8459 25.693 27.744C27.626 26.6836 29.7952 26.1277 32 26.1277C34.2048 26.1277 36.374 26.6836 38.307 27.744C37.2064 26.8459 35.9346 26.1812 34.569 25.7903C34.5416 25.7822 34.5168 25.7672 34.4968 25.7469C34.4768 25.7266 34.4622 25.7015 34.4545 25.674C34.4469 25.6465 34.4463 25.6175 34.4528 25.5898C34.4594 25.562 34.4728 25.5363 34.492 25.5152C34.5086 25.4963 34.529 25.4813 34.552 25.4711C34.575 25.4609 34.5999 25.4559 34.625 25.4564C36.2319 25.5631 37.7701 26.1479 39.042 27.1357C40.5056 30.0308 41.2931 33.2203 41.345 36.4639C40.8126 37.2068 40.1121 37.8134 39.3007 38.2342C38.4893 38.655 37.59 38.8781 36.676 38.8852Z" fill="#EE7219"/>
</g>
<path d="M3.02294 30L29.0229 3.5H56.0229C59.2229 3.5 60.0229 7.16667 60.0229 9C44.1896 26.1667 11.5229 60.5 7.52294 60.5C3.52294 60.5 2.85627 57.5 3.02294 56V30Z" fill="#C4C4C4" fill-opacity="0.09"/>
</g>
<defs>
<filter id="filter0_i_308_616" x="27.1475" y="31.4175" width="4.56641" height="4.5647" filterUnits="userSpaceOnUse" color-interpolation-filters="sRGB">
<feFlood flood-opacity="0" result="BackgroundImageFix"/>
<feBlend mode="normal" in="SourceGraphic" in2="BackgroundImageFix" result="shape"/>
<feColorMatrix in="SourceAlpha" type="matrix" values="0 0 0 0 0 0 0 0 0 0 0 0 0 0 0 0 0 0 127 0" result="hardAlpha"/>
<feOffset dx="1" dy="1"/>
<feGaussianBlur stdDeviation="2.5"/>
<feComposite in2="hardAlpha" operator="arithmetic" k2="-1" k3="1"/>
<feColorMatrix type="matrix" values="0 0 0 0 0 0 0 0 0 0 0 0 0 0 0 0 0 0 1 0"/>
<feBlend mode="normal" in2="shape" result="effect1_innerShadow_308_616"/>
</filter>
<filter id="filter1_i_308_616" x="32.9854" y="31.4175" width="4.56641" height="4.5647" filterUnits="userSpaceOnUse" color-interpolation-filters="sRGB">
<feFlood flood-opacity="0" result="BackgroundImageFix"/>
<feBlend mode="normal" in="SourceGraphic" in2="BackgroundImageFix" result="shape"/>
<feColorMatrix in="SourceAlpha" type="matrix" values="0 0 0 0 0 0 0 0 0 0 0 0 0 0 0 0 0 0 127 0" result="hardAlpha"/>
<feOffset dx="1" dy="1"/>
<feGaussianBlur stdDeviation="2.5"/>
<feComposite in2="hardAlpha" operator="arithmetic" k2="-1" k3="1"/>
<feColorMatrix type="matrix" values="0 0 0 0 0 0 0 0 0 0 0 0 0 0 0 0 0 0 1 0"/>
<feBlend mode="normal" in2="shape" result="effect1_innerShadow_308_616"/>
</filter>
<filter id="filter2_i_308_616" x="18" y="18" width="29" height="32.0821" filterUnits="userSpaceOnUse" color-interpolation-filters="sRGB">
<feFlood flood-opacity="0" result="BackgroundImageFix"/>
<feBlend mode="normal" in="SourceGraphic" in2="BackgroundImageFix" result="shape"/>
<feColorMatrix in="SourceAlpha" type="matrix" values="0 0 0 0 0 0 0 0 0 0 0 0 0 0 0 0 0 0 127 0" result="hardAlpha"/>
<feOffset dx="1" dy="1"/>
<feGaussianBlur stdDeviation="2.5"/>
<feComposite in2="hardAlpha" operator="arithmetic" k2="-1" k3="1"/>
<feColorMatrix type="matrix" values="0 0 0 0 0 0 0 0 0 0 0 0 0 0 0 0 0 0 1 0"/>
<feBlend mode="normal" in2="shape" result="effect1_innerShadow_308_616"/>
</filter>
<clipPath id="clip0_308_616">
<rect width="64" height="64" fill="white"/>
</clipPath>
</defs>
</svg>
