<svg width="16" height="13" viewBox="0 0 16 13" fill="none" xmlns="http://www.w3.org/2000/svg">
<path d="M3.18282 6.81872L12.2491 6.1835C14.1548 6.06801 15.7717 7.22295 15.9449 8.72438C16.1182 10.2836 14.6745 11.6117 12.8266 11.7272L3.70254 12.4202C1.79688 12.5357 0.179962 11.3807 0.00672007 9.87932C-0.108774 8.32015 1.27716 6.93421 3.18282 6.81872Z" fill="url(#paint0_linear_415_668)"/>
<path d="M12.4808 6.24133L9.76672 12.0161L7.97656 12.1315L10.6329 6.29908L12.4808 6.24133Z" fill="#C47323"/>
<path d="M6.93592 6.58777L4.2218 12.3625L2.43164 12.478L5.14576 6.70326L6.93592 6.58777Z" fill="#C47323"/>
<path d="M7.85966 0.639814L14.7893 5.43283C16.233 6.41453 16.4062 8.20469 15.1936 9.41739C13.9809 10.5723 11.7865 10.7456 10.3428 9.76387L3.41313 4.97085C1.96945 3.9314 1.79621 2.19899 3.0089 0.986297C4.22159 -0.168647 6.41598 -0.341888 7.85966 0.639814Z" fill="#EA983F"/>
<path d="M12.0754 3.58484L5.1457 6.12572L3.75977 5.20176L10.7472 2.66089L12.0754 3.58484Z" fill="#C47323"/>
<defs>
<linearGradient id="paint0_linear_415_668" x1="4.81781" y1="14.1412" x2="11.1651" y2="4.53551" gradientUnits="userSpaceOnUse">
<stop stop-color="#EA983F"/>
<stop offset="1" stop-color="#C48035"/>
</linearGradient>
</defs>
</svg>
