<svg width="17" height="13" viewBox="0 0 17 13" fill="none" xmlns="http://www.w3.org/2000/svg">
<path d="M12.8539 5.68077L3.79212 6.37778C1.8873 6.50626 0.262543 5.36236 0.0790711 3.86215C-0.104794 2.30419 1.3298 0.966201 3.17688 0.838113L12.296 0.0829704C14.2008 -0.0455107 15.8256 1.09838 16.009 2.59859C16.1352 4.15695 14.7587 5.55229 12.8539 5.68077Z" fill="url(#paint0_linear_415_674)"/>
<path d="M3.56223 6.3216L6.23692 0.528512L8.02626 0.400818L5.4097 6.25125L3.56223 6.3216Z" fill="#C47323"/>
<path d="M9.10325 5.93732L11.7779 0.144233L13.5673 0.0165416L10.8926 5.80962L9.10325 5.93732Z" fill="#C47323"/>
<path d="M8.22009 11.8914L1.25792 7.14576C-0.192416 6.17393 -0.377855 4.38498 0.826541 3.16406C2.03133 2.00087 4.22449 1.81268 5.67483 2.78452L12.637 7.53019C14.0877 8.55977 14.2728 10.291 13.0684 11.5119C11.8636 12.6751 9.67043 12.8633 8.22009 11.8914Z" fill="#EA983F"/>
<path d="M3.98494 8.97516L10.8971 6.3871L12.2893 7.30159L5.31939 9.89004L3.98494 8.97516Z" fill="#C47323"/>
<defs>
<linearGradient id="paint0_linear_415_674" x1="11.169" y1="-1.63037" x2="4.8873" y2="8.01834" gradientUnits="userSpaceOnUse">
<stop stop-color="#EA983F"/>
<stop offset="1" stop-color="#C48035"/>
</linearGradient>
</defs>
</svg>
