<svg width="26" height="26" viewBox="0 0 26 26" fill="none" xmlns="http://www.w3.org/2000/svg">
<path d="M13 0C5.82028 0 0 5.82028 0 13C0 20.1797 5.82028 26 13 26C20.1797 26 26 20.1797 26 13C25.9919 5.82367 20.1764 0.00810735 13 0Z" fill="#009345"/>
<path d="M5.5332 12.5056H8.76633H9.26633V13.0056V20.4686C9.26633 20.7621 9.50512 21 9.79965 21H16.1993C16.4938 21 16.7326 20.7621 16.7326 20.4686V13.0056V12.5056H17.2326H20.4657C20.7603 12.5061 20.9995 12.2686 21 11.9751M5.5332 12.5056L5.53338 12.0056M5.5332 12.5056C5.39156 12.5055 5.25577 12.4494 5.15572 12.3494C4.94773 12.1416 4.94813 11.8051 5.15667 11.5979L12.6229 4.14932M5.5332 12.5056V12.0056H5.53338M5.53338 12.0056H9.26633H9.76633V12.5056V20.4686C9.76633 20.4843 9.7796 20.5 9.79965 20.5H16.1993C16.2193 20.5 16.2326 20.4843 16.2326 20.4686V12.5056V12.0056H16.7326H20.4657H20.4667C20.4866 12.0056 20.4999 11.99 20.5 11.9742L21 11.9751M5.53338 12.0056C5.52389 12.0056 5.51523 12.0018 5.50912 11.9957M21 11.9751L20.5 11.9741C20.5 11.9664 20.4969 11.9586 20.4908 11.9525L20.4902 11.9519L13.0319 4.5113M21 11.9751C21.0002 11.8336 20.9439 11.6978 20.8433 11.5979L13.377 4.14932M13.377 4.14932C13.1653 3.95023 12.8346 3.95023 12.6229 4.14932M13.377 4.14932L13.0239 4.50329L13.0319 4.5113M13.377 4.14932L13.0344 4.51354C13.0336 4.51276 13.0328 4.51201 13.0319 4.5113M12.6229 4.14932L12.9654 4.51354C12.9663 4.51276 12.9671 4.51201 12.968 4.5113M12.6229 4.14932L12.976 4.50329L12.968 4.5113M5.50912 11.9957C5.49691 11.9835 5.497 11.9646 5.50914 11.9525L5.50981 11.9518L12.968 4.5113M5.50912 11.9957C5.50911 11.9957 5.5091 11.9957 5.5091 11.9957L5.15874 12.3464L5.50912 11.9957ZM12.968 4.5113C12.9864 4.49623 13.0135 4.49623 13.0319 4.5113" fill="#FAFAFA" stroke="#009345"/>
</svg>
