<svg width="60" height="50" viewBox="0 0 60 50" fill="none" xmlns="http://www.w3.org/2000/svg">
<path d="M55.2337 49.7H43.3568L39.8785 48.5681L36.4629 49.7H4.01995L0.0410156 45.4238V4.27626L4.01995 3.05176e-05H15.9788L21.9639 1.06909L29.0459 3.05176e-05H55.2337L59.1813 4.27626V45.4238L55.2337 49.7Z" fill="url(#paint0_linear_278_3535)"/>
<path d="M53.3435 45.5557H42.9504L40.0362 44.7697L37.3099 45.5557H6.88071L2.73242 41.9712V6.72879L6.88071 3.17575H14.6664L21.6543 4.49635L28.6109 3.17575H53.3435L57.4918 6.72879V41.9712L53.3435 45.5557Z" fill="url(#paint1_linear_278_3535)"/>
<path d="M44.9709 35.988L34.9672 26.5322L34.9381 25.394L44.3602 15.3253L44.3311 14.1871L39.5328 9.66351L38.3987 9.6927L34.0657 14.3039L32.757 16.3468L31.5938 16.9305L29.5 19.1777L27.4062 16.9305L26.243 16.3468L24.9343 14.3039L20.6304 9.6927L19.4672 9.66351L14.6689 14.1871L14.6398 15.3253L24.091 25.394L24.0328 26.5322L14.0291 35.988L14 37.1554L18.5075 41.9416L19.6417 42L25.8068 36.1631L27.7261 32.8652L29.2964 32.8944L29.5 32.6901L29.7326 32.8944L31.2739 32.8652L33.1932 36.1631L39.3583 42L40.4925 41.9416L45 37.1554L44.9709 35.988Z" fill="#C6842C"/>
<path d="M44.9709 34.3245L34.9672 24.8687L34.9381 23.7305L44.3602 13.6618L44.3311 12.5236L39.5328 8L38.3987 8.02918L34.0657 12.6403L32.757 14.6833L31.5938 15.267L29.5 17.5142L27.4062 15.267L26.243 14.6833L24.9343 12.6403L20.6304 8.02918L19.4672 8L14.6689 12.5236L14.6398 13.6618L24.091 23.7305L24.0328 24.8687L14.0291 34.3245L14 35.4918L18.5075 40.2781L19.6417 40.3365L25.8068 34.4996L27.7261 31.2017L29.2964 31.2309L29.5 31.0266L29.7326 31.2309L31.2739 31.2017L33.1932 34.4996L39.3583 40.3365L40.4925 40.2781L45 35.4918L44.9709 34.3245Z" fill="url(#paint2_linear_278_3535)"/>
<defs>
<linearGradient id="paint0_linear_278_3535" x1="47.679" y1="-0.246544" x2="47.679" y2="49.5" gradientUnits="userSpaceOnUse">
<stop stop-color="#C4C4C4"/>
<stop offset="1" stop-color="#565656"/>
</linearGradient>
<linearGradient id="paint1_linear_278_3535" x1="48" y1="46" x2="47.6797" y2="3.16104" gradientUnits="userSpaceOnUse">
<stop stop-color="#7B7B7B"/>
<stop offset="0.0625" stop-color="#8E8E8E"/>
<stop offset="1" stop-color="#CDCDCD"/>
</linearGradient>
<linearGradient id="paint2_linear_278_3535" x1="14" y1="24.1632" x2="45.012" y2="24.1632" gradientUnits="userSpaceOnUse">
<stop stop-color="#FFB100"/>
<stop offset="1" stop-color="#FFDF15"/>
</linearGradient>
</defs>
</svg>
